<svg xmlns="http://www.w3.org/2000/svg" width="40" height="40" viewBox="0 0 40 40">
  <g id="Icon_ionic-ios-close-circle-outline" data-name="Icon ionic-ios-close-circle-outline" transform="translate(-3.375 -3.375)">
    <path id="Path_57" data-name="Path 57" d="M27.313,25.142l-5.067-5.067,5.067-5.067a1.537,1.537,0,0,0-2.173-2.173L20.073,17.9l-5.067-5.067a1.537,1.537,0,0,0-2.173,2.173L17.9,20.075l-5.067,5.067a1.486,1.486,0,0,0,0,2.173,1.526,1.526,0,0,0,2.173,0l5.067-5.067,5.067,5.067a1.544,1.544,0,0,0,2.173,0A1.526,1.526,0,0,0,27.313,25.142Z" transform="translate(3.302 3.3)" fill="#e7f2f2"/>
    <path id="Path_58" data-name="Path 58" d="M23.375,6.067a17.3,17.3,0,1,1-12.24,5.067,17.193,17.193,0,0,1,12.24-5.067m0-2.692a20,20,0,1,0,20,20,20,20,0,0,0-20-20Z" fill="#e7f2f2"/>
  </g>
</svg>
