<svg xmlns="http://www.w3.org/2000/svg" xmlns:xlink="http://www.w3.org/1999/xlink" width="47.702" height="39.323" viewBox="0 0 47.702 39.323">
  <defs>
    <clipPath id="clip-path">
      <rect id="Rectangle_16" data-name="Rectangle 16" width="47.702" height="39.323" transform="translate(0 0)" fill="none"/>
    </clipPath>
  </defs>
  <g id="Group_14" data-name="Group 14" transform="translate(0 0)">
    <g id="Group_13" data-name="Group 13" clip-path="url(#clip-path)">
      <path id="Path_66" data-name="Path 66" d="M17.378,22.053l8.245,4.1c-.367.238-.687.457-1.022.652-.065.038-.19-.005-.28-.035q-4.534-1.5-9.066-3a.486.486,0,0,0-.3-.024l8.2,4.027c-.36.275-.688.538-1.033.777a.424.424,0,0,1-.3-.012q-4.578-1.457-9.154-2.922a.577.577,0,0,0-.292-.034l8.379,4.13c-.314.3-.6.584-.912.843-.064.053-.227.014-.334-.019q-4.615-1.434-9.23-2.876a.532.532,0,0,0-.293-.026l8.588,4.188c-.326.351-.622.688-.945,1-.064.061-.242.04-.353.008q-3.095-.9-6.184-1.817l-3.324-.976a.527.527,0,0,0-.3-.018l8.8,4.337c-.311.374-.6.733-.9,1.073-.044.049-.2.028-.294,0q-2.835-.874-5.666-1.761L5.368,32.411c-.092-.029-.186-.053-.343-.1l.283.371A25.734,25.734,0,0,0,.346,39.323c-.039-.16-.063-.229-.072-.3C.186,38.314.106,37.6.008,36.9a.583.583,0,0,1,.148-.489,38.136,38.136,0,0,1,4.231-4.416.542.542,0,0,0,.2-.521q-.525-5.223-1.029-10.448c-.01-.1-.007-.249.054-.3.753-.662,1.517-1.311,2.336-2.014-.014,4.146-.027,8.207-.041,12.357.423-.434.789-.8,1.141-1.181a.383.383,0,0,0,.037-.257Q6.77,25.763,6.451,21.9c-.086-1.052-.175-2.1-.256-3.157a.318.318,0,0,1,.061-.242c.694-.542,1.4-1.074,2.168-1.663-.014,3.944-.029,7.8-.043,11.736.422-.395.8-.731,1.151-1.088.057-.058.037-.21.028-.316q-.227-2.495-.459-4.987c-.158-1.722-.312-3.445-.477-5.167a.407.407,0,0,1,.2-.443c.654-.424,1.3-.866,1.99-1.333-.017,3.742-.033,7.417-.05,11.166.423-.353.809-.661,1.175-.992.058-.052.039-.207.029-.312q-.323-3.318-.652-6.635c-.1-1.031-.21-2.061-.3-3.093a.367.367,0,0,1,.108-.3c.7-.427,1.417-.835,2.2-1.29-.045,3.58-.089,7.086-.133,10.66.424-.316.806-.587,1.167-.883.067-.055.072-.218.062-.327q-.294-3.093-.6-6.185c-.1-1.031-.2-2.062-.315-3.092a.285.285,0,0,1,.192-.345c.645-.3,1.282-.614,1.983-.952-.022,3.369-.044,6.667-.066,10.019.425-.285.812-.533,1.183-.8a.358.358,0,0,0,.074-.285q-.3-2.805-.623-5.608c-.117-1.039-.227-2.079-.353-3.117-.023-.192.021-.292.208-.357.576-.2,1.147-.417,1.765-.643,0,3.128-.006,6.207-.01,9.338.4-.239.761-.445,1.106-.68.065-.045.08-.212.068-.317q-.3-2.607-.607-5.214c-.125-1.048-.257-2.1-.389-3.177l1.8-.545c.066,2.89.13,5.727.195,8.615l1.23-.61c-.415-2.691-.826-5.362-1.242-8.057l2.1-.558c.04,2.708.08,5.391.121,8.119.373-.18.718-.333,1.047-.514a.319.319,0,0,0,.093-.27c-.337-2.349-.677-4.7-1.034-7.044-.041-.274.019-.371.287-.42.462-.085.916-.21,1.41-.327.094,2.528.187,5.024.282,7.588.394-.183.763-.346,1.118-.532.044-.023.037-.181.021-.271q-.6-3.326-1.2-6.649c-.009-.048-.012-.1-.023-.181L25.9,9.773c.153,2.359.305,4.7.46,7.085.385-.187.731-.343,1.063-.526.058-.032.091-.185.074-.269-.2-.945-.409-1.886-.618-2.828q-.366-1.648-.733-3.3c-.012-.058-.015-.118-.026-.208l1.723-.385c.152,2.181.3,4.342.457,6.569.338-.167.643-.3.929-.472.053-.031.058-.2.039-.288-.209-1.014-.428-2.026-.643-3.039-.2-.923-.39-1.846-.594-2.809l1.772-.4.246,6.167c.357-.176.683-.324.993-.5.057-.032.078-.191.06-.28-.219-1.115-.45-2.227-.676-3.34-.139-.688-.276-1.376-.419-2.088l1.8-.418c.049,1.882.1,3.744.15,5.669.36-.192.681-.349.984-.535.055-.034.063-.2.045-.287-.165-.838-.342-1.674-.515-2.511-.16-.777-.32-1.553-.488-2.371l1.99-.5c-.059,1.746-.118,3.455-.178,5.223a9.414,9.414,0,0,0,.847-.464c.071-.048.093-.225.08-.337-.166-1.378-.342-2.754-.515-4.131-.014-.108-.027-.216-.042-.34l1.669-.489c-.072,1.6-.142,3.147-.215,4.777.316-.187.585-.328.83-.5.059-.041.06-.2.049-.3-.144-1.249-.288-2.5-.448-3.744-.029-.231.016-.333.252-.407.466-.145.916-.338,1.41-.526-.09,1.461-.179,2.889-.272,4.392.3-.187.553-.331.784-.507.058-.045.06-.2.049-.3-.12-1.12-.238-2.24-.379-3.357a.358.358,0,0,1,.26-.449c.425-.172.839-.371,1.3-.578-.082,1.344-.161,2.652-.244,4.028.29-.2.542-.358.769-.546.06-.05.065-.2.053-.3-.119-.978-.246-1.956-.371-2.933-.014-.109-.027-.218-.041-.338L41.111,5c-.058,1.213-.113,2.389-.172,3.626.277-.23.517-.411.73-.62a.4.4,0,0,0,.051-.3c-.132-.844-.268-1.688-.419-2.529a.346.346,0,0,1,.209-.427c.41-.226.805-.478,1.261-.752-.116,1.116-.227,2.176-.346,3.314.278-.277.506-.486.708-.718a.432.432,0,0,0,.063-.3c-.076-.72-.157-1.44-.25-2.158a.345.345,0,0,1,.183-.392c.356-.224.7-.472,1.078-.735-.063.878-.123,1.716-.189,2.638.211-.245.383-.423.526-.621a.447.447,0,0,0,.033-.282c-.058-.54-.119-1.08-.192-1.618a.347.347,0,0,1,.153-.381c.349-.25.683-.521,1.062-.814-.057.654-.11,1.261-.169,1.933a1.009,1.009,0,0,0,.381-.765,9.3,9.3,0,0,1,.019-1.144.611.611,0,0,1,.155-.353c.186-.194.4-.36.658-.583-.02.393-.036.726-.055,1.112a1.108,1.108,0,0,0,.363-.871C46.891.685,47.269.381,47.7,0c-.125.737-.233,1.4-.358,2.056-.015.083-.112.161-.188.22a13.058,13.058,0,0,0-1.033.847L47.2,2.786c-.082.334-.14.626-.23.908-.024.077-.134.138-.218.182-.657.342-1.318.678-1.962,1.059l1.951-.355c-.114.375-.2.71-.325,1.029-.032.08-.189.128-.3.157-.844.218-1.689.428-2.531.709l2.559-.006c-.156.409-.287.784-.448,1.144-.028.064-.183.093-.282.1-1.143.076-2.286.145-3.435.262l3.362.523c-.185.394-.346.769-.54,1.125-.036.066-.206.093-.309.084-1.35-.117-2.7-.243-4.05-.366a.115.115,0,0,0-.1.048L44.305,10.6c-.161.278-.3.545-.469.786-.045.063-.209.077-.309.06-1.593-.276-3.183-.561-4.774-.844a.138.138,0,0,0-.129.033l4.6,1.691c-.416.76-.416.761-1.2.58l-4.868-1.135a.6.6,0,0,0-.3-.009l5.2,2.174a5.728,5.728,0,0,1-.512.57c-.064.055-.225.03-.33,0q-2.9-.83-5.788-1.669a.455.455,0,0,0-.278-.011l5.568,2.571a7.163,7.163,0,0,1-.615.554c-.069.049-.225.01-.328-.026q-2.926-1.029-5.85-2.069a.712.712,0,0,0-.357-.051l5.74,2.862a5.717,5.717,0,0,1-.553.461.429.429,0,0,1-.323,0q-3.208-1.137-6.415-2.284a.446.446,0,0,0-.294-.023l6.076,3.09a6.109,6.109,0,0,1-.581.45c-.069.041-.207,0-.3-.035q-3.294-1.26-6.583-2.526a.534.534,0,0,0-.321-.038L36.375,19a3.458,3.458,0,0,1-.511.373.51.51,0,0,1-.356-.024q-3.488-1.341-6.97-2.694a.713.713,0,0,0-.358-.064l6.775,3.446a6.321,6.321,0,0,1-.61.424.434.434,0,0,1-.3-.03q-3.766-1.411-7.529-2.831a1.03,1.03,0,0,0-.4-.085l7.269,3.627a4.71,4.71,0,0,1-.586.39.517.517,0,0,1-.361-.009q-4.13-1.514-8.256-3.039a.9.9,0,0,0-.355-.074l7.711,3.969a7.637,7.637,0,0,1-.678.434c-.075.038-.209-.016-.307-.052q-4.133-1.551-8.263-3.106c-.109-.041-.22-.079-.329-.118l-.03.067,7.814,3.937a8.351,8.351,0,0,1-.768.483A.531.531,0,0,1,28.6,24q-4.326-1.593-8.648-3.2a1.2,1.2,0,0,0-.415-.093l8.241,4.082c-.336.212-.623.412-.93.576-.081.044-.228,0-.332-.042q-4.36-1.586-8.718-3.178c-.13-.048-.262-.091-.393-.137-.01.016-.021.031-.032.046" fill="#fff"/>
    </g>
  </g>
</svg>
