<svg id="kiwi_icon" data-name="kiwi icon" xmlns="http://www.w3.org/2000/svg" xmlns:xlink="http://www.w3.org/1999/xlink" width="74.759" height="43.33" viewBox="0 0 74.759 43.33">
  <defs>
    <clipPath id="clip-path">
      <rect id="Rectangle_10" data-name="Rectangle 10" width="74.759" height="43.33" fill="none"/>
    </clipPath>
  </defs>
  <g id="Group_4" data-name="Group 4" clip-path="url(#clip-path)">
    <path id="Path_10" data-name="Path 10" d="M107.34,166.848s.959,4.04,3.007,3.86,2.506-2.581,6.735-1.769.051.011.051.011-3.78,1.271-3.982,2.275l6.444,1s-5.011.409-6.3.613-2.517.282-1.9,2.573c0,0-2.332-1.184-2.8-2.77s-3.615-1-7.064-4.582" transform="translate(-80.608 -132.311)" fill="#423b3e"/>
    <path id="Path_11" data-name="Path 11" d="M15.809,158.978a4.641,4.641,0,0,0-2.741,1.387c-.964,1.182-.477,2.642-.2,4.283A4.96,4.96,0,0,1,11.73,168a11.5,11.5,0,0,0-.411-4.115l-2.56,3.888s1.484-5.524,1.477-6.268-.58-1.422-2.077-1.359c0,0,1.149-1.436,2.129-1.546s1.616.034,1.771-.225a3.51,3.51,0,0,0,.12-1.163" transform="translate(-6.478 -124.673)" fill="#423b3e"/>
    <path id="Path_12" data-name="Path 12" d="M220.942,29a5.975,5.975,0,0,1,.835-.5,18.019,18.019,0,0,1,7.01-1.588c7.468-.272,14.637,2.08,21.382,5-7.537-2.239-18.949-4.406-26.153-.569a5.432,5.432,0,0,0-.781.528l-.012.013-.006.007.023-.016Z" transform="translate(-175.409 -21.327)" fill="#ff8a80"/>
    <path id="Path_13" data-name="Path 13" d="M34.645,39.818c-.078,2.285-.645,4.414-2.639,3.858s-15.393-8.018-23.128-.45S4.329,60.107.7,60.076s7.546,8.114,18.118,7.9,15.447-4.332,19.438-8.2,2.886-12.261,2.882-12.647-6.492-7.32-6.492-7.32" transform="translate(0 -31.576)" fill="#8d6e63"/>
    <path id="Path_14" data-name="Path 14" d="M183.887,10A8.238,8.238,0,1,1,177.554.185,8.236,8.236,0,0,1,183.887,10" transform="translate(-133.056 0)" fill="#8d6e63"/>
  </g>
</svg>
