<svg id="logo" xmlns="http://www.w3.org/2000/svg" xmlns:xlink="http://www.w3.org/1999/xlink" width="1212.042" height="574.393" viewBox="0 0 1212.042 574.393">
  <defs>
    <clipPath id="clip-path">
      <path id="Path_56" data-name="Path 56" d="M185.274,275.817c-3.031-2.329-10.074-5.916-26.371-9.73-2.482-.509-4.883-1.084-7.136-1.727a5.381,5.381,0,0,1-3.9-5.22l-1.288,1.178a5.483,5.483,0,0,1-2.643,1.312,5.336,5.336,0,0,1-1.583,2.476c-.55.509-1.086,1-1.636,1.486l-13.454,12.233-16.365,5.34L13.86,317.59l24,76.974,110.046,10.2s4-81.873,31.817-102.592a23.2,23.2,0,0,0,6.17-6.036,18,18,0,0,0,2.964-8.191c1.06-7.576-1.529-10.534-3.568-12.1Z" transform="translate(-13.86 -259.14)" fill="none"/>
    </clipPath>
  </defs>
  <path id="Path_18" data-name="Path 18" d="M197.663,156.079,282.317,76.99l-13.025,41.666-20.912,2.556a32.025,32.025,0,0,0-6.063,2.583c-2.374,1.245-4.909,2.717-7.632,4.417s-5.513,3.56-8.384,5.595-5.674,4.122-8.4,6.251q-9.678,7.248-20.255,16.008Z" transform="translate(67.468 26.07)" fill="#e7f2f2"/>
  <path id="Path_19" data-name="Path 19" d="M127.406,78.706c3.246-.187,6.506-.268,9.738-.549,3.179-.281,6.345-.75,9.51-1.138.107.348.228.7.335,1.044A22.046,22.046,0,0,1,143.7,79.9c-4.628,1.633-9.282,3.212-13.95,4.685-2.052.656-2.361,2.155-1.677,3.667.443.977,1.878,2.315,2.656,2.2,5.258-.843,10.449-2.034,15.667-3.119,2.75-.576,5.473-1.5,8.236-1.646,3.809-.214,5.513,2.382,3.353,5.528-2.575,3.748-1.878,7.321-.791,11.069,1.019,3.533,2.254,3.975,5.231,2.516.483-2.837.416-5.568,1.422-7.817,2.213-4.966,6.4-8.071,11.321-10.266a52.4,52.4,0,0,0,4.574-2.69,62.27,62.27,0,0,1,6.4-3.533,24.4,24.4,0,0,1,6.345-1.74c9.349-1.164,18.752-3.2,28.075-2.945,12.6.335,25.11,1.272,37.612-1.111a5.828,5.828,0,0,1,3.7,1.057c8.692,5.461,17.3,11.029,25.956,16.53,1.6,1,2.186,2.262,1.274,3.948-.389.723-.765,1.459-1.14,2.2l32.81-30.838c-1.247-.361-2.481-.736-3.7-1.178-5.7-2.034-11.187-4.7-16.955-6.532-9.457-3.011-19.262-5.033-28.531-8.513-6.854-2.57-13.333-4.832-20.831-3.815-10.489,1.419-21.167,1.633-31.549,3.52-10.8,1.954-21.314,5.421-32.018,7.924a20.744,20.744,0,0,1-7.7-.174c-3.595-.549-7.1-1.994-10.691-2.2-7.525-.415-14.433-2.048-20.147-7.295a31.914,31.914,0,0,0-4.131-2.864c-1.9-1.272-4.038-1.994-5.526.268-1.462,2.222.362,3.533,2,4.859,3.072,2.5,6.05,5.126,8.974,7.817a2.551,2.551,0,0,1,.456,2.115c-.067.321-1.18.669-1.757.576-5.473-.83-10.932-1.753-16.4-2.663-1.958-.335-3.675-.161-4.145,2.155-.416,1.994-.2,3.841,2.254,4.43,1.623.388,3.259.709,4.9,1.031q5.835,1.144,11.7,2.262a3.487,3.487,0,0,1-2.119.9q-8.934.823-17.88,1.62c-1.851.174-3.635.294-3.367,2.985.241,2.4,1.006,4.056,3.783,3.895Z" transform="translate(42.179 15.333)" fill="#e7f2f2"/>
  <path id="Path_20" data-name="Path 20" d="M498.024,57.815c-.577,2.878-1.476,5.675-2.227,8.512l-.872-.12c0-.964,0-1.914.027-2.878.094-4.47.2-8.941.3-13.425.054-2.423-.8-4.122-3.675-3.948.429-2.088.536-3.8-2.012-4.189-2.227-.348-3.38.709-3.836,2.73-.63,2.824-1.207,5.662-1.811,8.5a16.074,16.074,0,0,1-.054-4.939c.121-1.74.121-3.574-2.173-3.828-2.012-.228-3.541.642-3.8,2.851-.4,3.413-.845,6.826-1.006,10.252-.228,4.832-.832,9.476-3.984,13.706-1.449-.83-2.871-1.258-3.729-2.2-3.219-3.52-7.19-3.533-11.321-2.637-.912.2-1.65,1.2-2.482,1.847.711.709,1.3,1.74,2.16,2.088,4.306,1.713,8.021,4.082,10.235,8.285,1.7,3.212,3.474,6.411,4.869,9.757.8,1.927,1.65,4.31,1.194,6.184-1.61,6.478-3.635,12.849-5.768,19.18-3.568,10.641-10.865,19.046-17.33,27.92-2.361,3.239-4.655,3.426-8.263,1.526-3.689-1.954-7.176-4.337-10.972-6.05-4.842-2.182-9.913-3.881-15.573-6.063,1.328-.937,2.16-1.432,2.884-2.061,2.213-1.954,4.8-3.667,6.425-6.036,1.127-1.646,1.878-2.369,3.836-2.1,2.455.335,4-.509,3.944-3.426-.067-3.547.134-7.107.335-10.641.054-.937.322-2.4.926-2.65,2.361-1.031,2.71-2.784,2.844-5.059a37.086,37.086,0,0,1,1.368-5.983c2.535,0,4.936-.094,7.324,0,2.871.107,5.111-.7,5.258-3.935a70.564,70.564,0,0,0-.309-7.709c-.443-6.612-3.675-11.5-9.644-14.321-2.361-1.111-4.319-2.316-5.594-4.671a4.454,4.454,0,0,0-2.549-1.927c-2.924-.776-5.956-1.178-8.88-1.941a19.074,19.074,0,0,1-3.608-1.834c-1.878-.977-3.716-2.69-5.634-2.8a56.124,56.124,0,0,0-22.75,2.9c-7.726,2.757-13.092,7.629-17.384,14.08-1.221,1.834-1.583,4.216-2.334,6.358-.443,1.272-.9,2.543-1.341,3.815a25.357,25.357,0,0,1-4.011-1.834c-3.26-2.222-6.13-5.207-9.644-6.8a39.88,39.88,0,0,0-3.877-1.486l-12.18,10.694-41.086,38.628c-2.911,3.908-5.835,7.817-8.652,11.805-4.413,6.224-8.706,12.555-12.636,19.086-4.534,7.535-7.927,15.633-14.017,22.392-3.42,3.8-5.365,8.847-9.859,12.14-2.616,1.914-4.038,5.407-6.211,8a22.707,22.707,0,0,1-4.306,3.574c-1.757,1.258-3.716,2.275-5.446,3.574a83.648,83.648,0,0,0-9.215,7.388c-3.89,3.895-7.887,7.883-10.865,12.448-5.406,8.3-6.774,17.908-6.975,27.625-.161,7.522-1.757,14.669-6.962,20.144-13.508,14.241-20.872,32.056-29.148,49.282-3.85,8.017-9.537,14.281-15.949,19.876-5.392,4.711-11.75,8.339-17.773,12.314-8.705,5.742-17.156,11.671-22.361,21.161a106.857,106.857,0,0,1-7.713,11.444c-3.9,5.327-8.142,10.413-11.925,15.82-6.613,9.449-13.508,18.618-22.428,26.086-5.231,4.377-15.614,4.792-21.046.656-1.918-1.459-3.9-2.034-5.607-.147a10.175,10.175,0,0,0-2.71,4.966,44.5,44.5,0,0,0-.188,10c1.529,17.2,3.42,34.331,2.938,51.7-.04,1.539-.013,3.065.08,4.591l37.4-35.763a2.738,2.738,0,0,1,.161-2.182c1.556-2.463,3.219-4.872,4.963-7.2,2.562-3.413,5.647-6.5,7.767-10.159A78.443,78.443,0,0,1,117.008,421.1c10.3-9.209,20.992-18.015,30.905-27.625A184.246,184.246,0,0,1,176.417,371a63.7,63.7,0,0,0,10.825-8.419c6.251-6.317,11.724-13.411,19.41-18.216a22.351,22.351,0,0,0,4.239-3.721c6.841-7.228,13.682-14.455,20.416-21.777,5.3-5.769,10.65-11.524,15.627-17.574,8.451-10.266,16.633-20.773,27.23-29.017a3.865,3.865,0,0,1,2.522-.83c4.453.5,8.907,1.164,13.347,1.794,6.117.857,12.22,2.262,18.363,2.5,13.494.549,27.029.5,40.536.776a69.087,69.087,0,0,1,6.989.843c.2.308.389.6.59.91a18.58,18.58,0,0,0-2.884,2.824c-3.81,5.755-7.981,11.337-11.133,17.44-3.286,6.384-5.392,13.371-8.343,19.943-4.024,8.968-8.142,17.908-12.622,26.648-3.93,7.669-8.37,15.071-12.663,22.553-1.006,1.753-2.052,3.681-4.775,3.2a2.406,2.406,0,0,0-1.945,1.151c-2.16,4.966-4.359,9.931-6.17,15.031-1.127,3.172-2.012,6.358-4.976,8.379-1.771,1.2-1.891,2.717-.644,4.283.912,1.124,1.878,2.5,3.125,3a147.858,147.858,0,0,0,15.278,5.407c9.577,2.6,19.41,4.323,28.88,7.254,9.685,3,19.343,4.818,29.349,2.8a57.982,57.982,0,0,0,12.072-4.149,6.038,6.038,0,0,0,3.662-7.214c-.8-3.815-2.938-6.023-6.68-6.451-3.219-.361-6.479-.348-9.7-.75a13.678,13.678,0,0,1-3.836-1.5c-1.811-.83-3.581-1.78-5.392-2.623-.845-.388-1.958-.428-2.616-1-4.6-4.029-9.108-8.165-13.655-12.26l1.127-.4c-.148-1.245-.215-2.5-.483-3.721-.443-1.981-1.784-4.082-1.435-5.876a64.625,64.625,0,0,1,12.9-27.5c5.7-7.228,12.059-13.947,17.693-21.228,9.752-12.595,19.369-25.31,28.638-38.253a98.892,98.892,0,0,0,9.349-16.65c2.629-5.809.322-13.92-4.239-16.637a75.384,75.384,0,0,0-9.323-4.457c-3.957-1.66-8.048-3.025-12.019-4.644-17.921-7.335-35.734-14.937-53.762-21.977-5.768-2.249-12.1-3.052-19.155-4.751.939-.656,1.489-.977,1.972-1.392q12.575-10.621,25.124-21.281c2.079-1.753,4.507-3.252,6.1-5.381a46.979,46.979,0,0,1,15.251-12.836c8.786-4.805,17.2-9.971,23.85-17.654,2.83-3.266,4.976-3.533,8.8-1.74a22.239,22.239,0,0,1,2.924,1.834c2.468,1.633,4.319,4.845,8.1,3.038.268-.134.791.187,1.18.361,17.572,7.79,36.593,9.583,55.184,13.1a7.1,7.1,0,0,0,8.008-3.654q5.875-10.721,11.442-21.589c6.586-12.929,9.483-26.916,12.113-41.05.9-4.845,3.058-9.463,4.789-14.134,1.583-4.27,3.917-8.339,4.936-12.729,1.7-7.361,2.616-14.91,3.863-22.392l-.537-4.377c-3.85-.7-4.48-.161-5.231,3.641Z" transform="translate(16.401 14.127)" fill="#e7f2f2"/>
  <path id="Path_21" data-name="Path 21" d="M51.25,392.879a22.344,22.344,0,0,0,9.121,13.13l5-.616c2.79-1.82,3.689-4.618,3.984-7.709A40.3,40.3,0,0,1,74.12,381.89a15.344,15.344,0,0,0,1.167-4.751c.282-1.633-.013-3.507.671-4.912.993-2.048,2.052-4.069,3.125-6.077L51.25,392.865Z" transform="translate(17.491 123.935)" fill="#e7f2f2"/>
  <path id="Path_22" data-name="Path 22" d="M314.107,36.383,249.99,96.64l4.091-33.434,18.806-2.3q1.791-.361,4.145-1.044c1.569-.455,3.219-1.017,4.95-1.7s3.514-1.486,5.352-2.423a37.7,37.7,0,0,0,5.352-3.333q3.964-2.811,7.793-5.648t6.854-5.18q3.561-2.69,6.774-5.207Z" transform="translate(85.334 12.323)" fill="#e7f2f2"/>
  <path id="Path_23" data-name="Path 23" d="M78.162,378.01,5.54,446.445s49.027-44.477,71.629-46.056" transform="translate(1.887 127.949)" fill="#e7f2f2"/>
  <path id="Path_24" data-name="Path 24" d="M69.79,377.63l65.888-59.28S102.855,347.475,83.915,350.3" transform="translate(23.818 107.757)" fill="#e7f2f2"/>
  <path id="Path_25" data-name="Path 25" d="M206.811,155.3c2.321,0,4.668.054,7.029.174a87.625,87.625,0,0,1,20.536,3.44,62.8,62.8,0,0,1,18.243,8.727,47.931,47.931,0,0,1,13.964,15.339,10.256,10.256,0,0,1,.952,1.553,11.656,11.656,0,0,1,.644,1.593l-63.9,58.2a35.6,35.6,0,0,0,5.835-8.352,31.431,31.431,0,0,0,2.71-8.017l.268-1.927q2.052-13.471-5.245-19.648-6.076-5.26-16.606-5.247a49.432,49.432,0,0,0-5.124.281,59.251,59.251,0,0,0-11.133,2.356,44.828,44.828,0,0,0-10.785,4.925,31.71,31.71,0,0,0-8.437,7.683,23.031,23.031,0,0,0-4.413,10.641q-1.046,8.011,6.828,13.639,8.712,6.023,31.536,11.029c.966.214,1.865.415,2.669.589s1.6.388,2.361.616L147.7,295.572q-5.05-1.365-9.323-2.878c-2.857-1.017-5.54-2.021-8.075-3.012q-43.963-17.768-38.377-57.66a65.652,65.652,0,0,1,12.528-31.079,96.594,96.594,0,0,1,24.467-22.861,130.336,130.336,0,0,1,31.24-14.9,161.6,161.6,0,0,1,32.85-7.174,130.136,130.136,0,0,1,13.8-.723m95.586,11.9q-.825,1.185-3.649,5.126t-6.264,8.794q-3.441,4.859-6.841,10.038c-2.267,3.453-4.078,6.344-5.406,8.7a54.635,54.635,0,0,0-3.528,7.709,69.565,69.565,0,0,0-2.186,6.933,62.794,62.794,0,0,0-1.328,6.933l-.63.067v.161l-34.084,3.6L302.4,167.215m-97.4,88.4q6.841,1.967,12.542,4.122a112.633,112.633,0,0,1,10.369,4.511q36.257,18.27,30.758,57.366-2.495,18.25-11.817,31.788a86.107,86.107,0,0,1-22.83,22.687,114.96,114.96,0,0,1-29.872,14.361,167.24,167.24,0,0,1-33.1,6.96,151.567,151.567,0,0,1-15.748.79h-1.422a123.748,123.748,0,0,1-18.028-1.486,93.453,93.453,0,0,1-17.4-4.47,65.342,65.342,0,0,1-15.4-8,9.327,9.327,0,0,0-3.246-.522c-.5,0-1.006.027-1.543.08a35.657,35.657,0,0,0-9.524,2.663A105.131,105.131,0,0,0,67.228,392.1q-6.056,3.413-12.569,7.562t-12.528,8.579Q27.7,418.28,12.1,430.822L131.587,322.408q-2.354,18.089,5.526,25.3,6.338,5.762,20.389,5.769a86.714,86.714,0,0,0,9.121-.522,53.715,53.715,0,0,0,10.986-2.342,39.95,39.95,0,0,0,9.859-4.751,28.012,28.012,0,0,0,7.592-7.428,22.977,22.977,0,0,0,3.863-10.507q1.63-11.544-5.607-17.092-7.585-5.822-28.5-10.721-3.561-.723-6.814-1.646l47.028-42.844m-61.488,43.74h0m0,0c-.55.509-1.1,1.017-1.65,1.5l1.65-1.5m-1.65,1.5L75.008,361.664q-5.855-14.857-3.273-33.9l.2-1.124L89.294,324.8v-.161a87.768,87.768,0,0,0,17.88-4.256,118.078,118.078,0,0,0,17.854-7.642,84.241,84.241,0,0,0,16.861-11.9m-10.3,21.536h0m75.251-179.137a143.457,143.457,0,0,0-15.064.79,174.578,174.578,0,0,0-35.318,7.7,142.86,142.86,0,0,0-34.138,16.289,109.281,109.281,0,0,0-27.5,25.7A77.65,77.65,0,0,0,79.985,230.39c-3.072,21.977,2.052,51.691,43.34,69.425-1.3.816-2.616,1.566-3.9,2.235a106.508,106.508,0,0,1-16.016,6.866c-.067.027-.134.04-.215.067a75.56,75.56,0,0,1-15.412,3.681,11.619,11.619,0,0,0-1.7.335l-15.426,1.633a12.047,12.047,0,0,0-10.624,9.9l-.2,1.124c-.027.147-.054.308-.067.468-1.985,14.7-.63,28.121,4,39.912a10.449,10.449,0,0,0,.51,1.111L3.956,421.881a12.059,12.059,0,0,0,15.694,18.3c10.141-8.151,20.027-15.58,29.363-22.084a3.1,3.1,0,0,0,.255-.187c3.769-2.771,7.767-5.5,11.885-8.138s8.169-5.059,11.992-7.214A95.075,95.075,0,0,1,83.3,397.575a27.075,27.075,0,0,1,5.459-1.713,78.7,78.7,0,0,0,15.533,7.669,104.7,104.7,0,0,0,19.664,5.059,134.86,134.86,0,0,0,19.812,1.633h1.516a164.485,164.485,0,0,0,17.009-.857A180.567,180.567,0,0,0,197.8,401.9a127.005,127.005,0,0,0,33-15.874,98.833,98.833,0,0,0,25.982-25.832c7.257-10.547,11.911-22.981,13.83-36.981,4.386-31.119-8.5-55.251-37.277-69.746-3.474-1.74-7.337-3.426-11.509-5.019-.979-.375-1.985-.736-3-1.1l13.145-11.979a12.058,12.058,0,0,0,6.492,1.887c.416,0,.845-.027,1.274-.067l34.1-3.6a12.518,12.518,0,0,0,3.192-.776,12.054,12.054,0,0,0,8.115-9.878,47.663,47.663,0,0,1,1.073-5.568c.4-1.593,1.019-3.533,1.811-5.715a44.3,44.3,0,0,1,2.736-5.983c1.194-2.088,2.857-4.765,4.95-7.95,2.186-3.319,4.413-6.585,6.613-9.7,2.267-3.212,4.346-6.117,6.211-8.713,2.119-2.958,3.219-4.5,3.8-5.327A12.052,12.052,0,0,0,302.37,155.1a12.235,12.235,0,0,0-8.129,3.132l-18.417,16.717A59.858,59.858,0,0,0,259.5,157.7a75.053,75.053,0,0,0-21.744-10.413,100.958,100.958,0,0,0-23.34-3.908c-2.549-.134-5.111-.187-7.632-.187h0Zm95.586,35.991ZM163.337,228.65a10.812,10.812,0,0,1,2.052-4.992,19.854,19.854,0,0,1,5.272-4.792,33.5,33.5,0,0,1,7.914-3.614,46.256,46.256,0,0,1,8.84-1.887,35.883,35.883,0,0,1,3.85-.214c4,0,6.921.776,8.705,2.316.027.027.067.054.094.08,1.878,1.593,1.5,6.1,1.113,8.66a.455.455,0,0,1-.013.134l-.228,1.646a19.839,19.839,0,0,1-1.663,4.725,23.534,23.534,0,0,1-3.89,5.474,12.02,12.02,0,0,0-2.374,3.868l-.671-.147c-17.666-3.868-24.587-7.348-27.176-9.115-1.744-1.258-1.851-1.847-1.824-2.155h0Zm-13.36,81.123c.469-.415.939-.843,1.4-1.272a12.1,12.1,0,0,0,3.327,1.512c2.388.669,4.909,1.285,7.512,1.82,16.459,3.868,22.079,7.228,23.729,8.5.456.361,1.663,1.285,1.019,5.876,0,.054-.013.094-.013.147a11.339,11.339,0,0,1-1.8,5.153,16.318,16.318,0,0,1-4.386,4.3,28.639,28.639,0,0,1-6.908,3.319,41.637,41.637,0,0,1-8.5,1.807,76.847,76.847,0,0,1-7.847.455c-8.692,0-11.576-2.008-12.247-2.623-1.543-1.405-2.8-5.983-1.744-14.535a12.148,12.148,0,0,0,.148-1.86,11.968,11.968,0,0,0-1.382-5.608l7.7-7h0Z" transform="translate(-0.004 48.475)" fill="#e7f2f2"/>
  <path id="Path_26" data-name="Path 26" d="M332.926,163.8,242.531,248.75l5.754-47.14,26.505-3.252c1.69-.335,3.635-.83,5.848-1.459s4.534-1.432,6.975-2.4,4.95-2.1,7.552-3.413a50.986,50.986,0,0,0,7.538-4.7q5.594-3.975,10.986-7.964t9.671-7.295q5.01-3.794,9.564-7.335M318.01,193.7c1.476,0,2.964.04,4.453.107a52.715,52.715,0,0,1,13.293,2.356,40.166,40.166,0,0,1,11.737,5.916,30.847,30.847,0,0,1,8.84,10.252q6.016,10.8,4.145,25.551a53.862,53.862,0,0,1-7.351,22.031,60.7,60.7,0,0,1-14.768,16.476,75.214,75.214,0,0,1-19.825,10.935,99.281,99.281,0,0,1-22.548,5.5l-9.027,1.111a20.987,20.987,0,0,0-3.206.7,15.1,15.1,0,0,0-3.407,1.419L231.29,342.04l7.834-65.1a5.11,5.11,0,0,0-1.019-2.168,2.913,2.913,0,0,0-2.562-1.017,8.821,8.821,0,0,0-.993.067,10.818,10.818,0,0,0-2.75.79,29,29,0,0,0-3.7,1.9q-4.165,2.59-7.82,4.885t-6.425,4.015q-3.239,1.988-5.915,3.707l100.938-94.9a86.315,86.315,0,0,1,9.148-.482m-40.536,72.651,22.186-2.717c6.278-.776,11.455-2.9,15.506-6.424s6.479-8.5,7.284-14.964q1.207-9.6-3.42-14.9-3.722-4.236-10.879-4.243c-.885,0-1.811.054-2.777.147l-23.072,2.824-4.816,40.26M272,311.6l-4.118,33.715-20.912,2.556a32.028,32.028,0,0,0-6.063,2.583c-2.374,1.245-4.909,2.717-7.632,4.417s-5.513,3.56-8.384,5.595-5.674,4.122-8.4,6.251q-9.678,7.248-20.255,16.008L272,311.6M332.939,151.78a12.03,12.03,0,0,0-7.418,2.543c-3.018,2.342-6.184,4.778-9.43,7.241a.585.585,0,0,0-.094.08c-2.763,2.141-5.956,4.551-9.47,7.147-3.474,2.57-7.1,5.207-10.785,7.817-.08.054-.161.12-.255.187a39.328,39.328,0,0,1-5.754,3.587c-2.254,1.138-4.453,2.142-6.533,2.958s-4.051,1.5-5.875,2.021c-1.69.482-3.192.87-4.48,1.151L246.837,189.7a12.063,12.063,0,0,0-10.516,10.493l-5.755,47.14a11.874,11.874,0,0,0,.148,3.841l-31.039,29.191a12.057,12.057,0,0,0,14.809,18.9c1.717-1.1,3.635-2.3,5.714-3.574a.281.281,0,0,0,.08-.054c1.435-.9,3.045-1.9,4.816-3.012l-5.781,48a11.927,11.927,0,0,0,.148,3.788l-31.482,29.566a12.056,12.056,0,0,0,15.976,18.042c6.881-5.688,13.534-10.948,19.8-15.646.054-.04.121-.094.174-.134,2.562-1.994,5.245-4,7.981-5.943,2.683-1.9,5.285-3.654,7.767-5.193s4.775-2.878,6.881-3.989a28.038,28.038,0,0,1,3.031-1.419l19.772-2.423a12.063,12.063,0,0,0,10.516-10.493l4.118-33.715a11.662,11.662,0,0,0-.134-3.748l3.3-3.105a8.129,8.129,0,0,1,1.288-.294l9.027-1.111a111.129,111.129,0,0,0,25.285-6.17,87.685,87.685,0,0,0,23-12.688,73.127,73.127,0,0,0,17.679-19.715,65.881,65.881,0,0,0,9.041-26.849c1.556-12.341-.309-23.383-5.553-32.819A42.711,42.711,0,0,0,354.656,192.4a52.47,52.47,0,0,0-15.238-7.683,65.339,65.339,0,0,0-8.84-2.1l10.65-10.012a12.044,12.044,0,0,0-8.29-20.813h0Zm0,24.092ZM306.7,235.259a14.312,14.312,0,0,1,1.449-.08,6.276,6.276,0,0,1,1.865.214c.6.816.778,2.851.456,5.367-.63,5.14-2.575,6.826-3.219,7.375a16.321,16.321,0,0,1-9.054,3.56l-6.908.843,1.865-15.633,13.534-1.66h0ZM271.988,323.65Z" transform="translate(62.868 51.382)" fill="#e7f2f2"/>
  <path id="Path_27" data-name="Path 27" d="M436.791,153.3,346.477,238.14l6.143-50.473,30.731-3.761c1.677-.4,3.595-.924,5.741-1.553s4.413-1.405,6.787-2.329a76.128,76.128,0,0,0,7.27-3.279,62.655,62.655,0,0,0,7.19-4.31c2.495-1.834,5.017-3.667,7.538-5.5s4.95-3.587,7.27-5.274,4.467-3.226,6.452-4.671,3.7-2.677,5.178-3.721M425.2,179.57h.563a56.389,56.389,0,0,1,9.269.8,49.809,49.809,0,0,1,8.92,2.382,32.994,32.994,0,0,1,8.062,4.337Q465.9,197.13,463.189,218.84q-1.871,15.539-9.416,26.354t-21.127,18.645l15.225,35.429v-.094l9.323,21.629-41.033,5.033L396.349,277.45l-17.867,2.2-2.294,18.578a2.991,2.991,0,0,0,.7,1.164,1.751,1.751,0,0,0,1.355.442,5.541,5.541,0,0,0,.644-.04,11.911,11.911,0,0,0,3.166-1.031,51.98,51.98,0,0,0,5.07-2.73c-.2.147-.8.683-1.824,1.633-1.194,1.111-2.736,2.57-4.641,4.4s-4.091,3.882-6.559,6.17-4.99,4.631-7.565,6.987q-8.933,8.452-20.362,19.193l-11.482,1.405,8.437-69.947a6.357,6.357,0,0,0-1.1-2.1,2.869,2.869,0,0,0-2.482-.977,8.593,8.593,0,0,0-.966.067,13.269,13.269,0,0,0-2.8.736,24.57,24.57,0,0,0-3.756,1.847q-4.185,2.51-7.82,4.832c-2.428,1.553-4.574,2.918-6.425,4.069-2.093,1.379-4.011,2.717-5.781,3.989L345.5,246.88v-.094l71.186-66.9c2.79-.214,5.634-.321,8.571-.321m-43.138,70.884,21.3-2.61q9.517-1.164,15.171-6.679t6.868-15.017q1.066-9.075-3.152-13.438-3.279-3.533-9.98-3.533a31.89,31.89,0,0,0-3.783.241l-21.8,2.664-4.655,38.36m5.1,45.52s-.04.027-.067.04a.122.122,0,0,1,.067-.04m-13.078,20-1.61,15.312a82.569,82.569,0,0,0-14.782,6.987,200.357,200.357,0,0,0-17.009,11.23,214.131,214.131,0,0,0-20.335,17.159L374.1,315.971m-53.722,50.673-1.274,1.2c.429-.4.858-.8,1.274-1.2M436.791,141.21a11.978,11.978,0,0,0-6.988,2.235q-2.233,1.586-5.272,3.788-2.978,2.148-6.439,4.658c-2.321,1.673-4.748,3.44-7.3,5.274-2.495,1.807-4.99,3.627-7.458,5.434a50.62,50.62,0,0,1-5.687,3.4,65.4,65.4,0,0,1-6.13,2.771c-2.052.79-4,1.459-5.808,1.994-1.677.5-3.192.91-4.534,1.245l-30.02,3.681A12.051,12.051,0,0,0,340.642,186.2L334.5,236.668a11.858,11.858,0,0,0,.148,3.841l-30.959,29.058A12.058,12.058,0,0,0,319.032,288.1c1.569-1.138,3.34-2.356,5.258-3.627,1.382-.87,2.964-1.86,4.789-3.025l-6.385,52.922a12.04,12.04,0,0,0,3.461,9.971c.054.04.094.094.148.134l-14.219,13.411c-.429.4-.872.816-1.3,1.231a12.06,12.06,0,0,0,16.606,17.493l1.274-1.2h0A204.705,204.705,0,0,1,347.8,359.243,186.725,186.725,0,0,1,363.754,348.7a71.48,71.48,0,0,1,12.609-6,12.047,12.047,0,0,0,8.156-10.159l1.61-15.312a12.2,12.2,0,0,0-.161-3.574c1.1-1.031,2.119-2.008,3.072-2.918,1.784-1.713,3.3-3.145,4.507-4.27.443-.4.778-.723,1.033-.937l.2-.161L405.027,330.4a12.061,12.061,0,0,0,11.174,7.5,11.067,11.067,0,0,0,1.475-.094l41.032-5.033a12.039,12.039,0,0,0,9.618-16.717l-9.336-21.629c-.107-.241-.215-.482-.335-.723l-10.892-25.337a71.068,71.068,0,0,0,15.962-16.275c6.143-8.807,10.007-19.5,11.482-31.8,2.964-23.717-7.082-36.432-16.056-42.924a45.5,45.5,0,0,0-10.959-5.889,61.818,61.818,0,0,0-10.167-2.811l7.056-6.639A12.041,12.041,0,0,0,436.8,141.21h0Zm0,24.092ZM397.583,222.9,410,221.369a18.613,18.613,0,0,1,2.307-.161,8.624,8.624,0,0,1,1.18.067,12.731,12.731,0,0,1-.04,3.386c-.469,3.574-1.556,6.143-3.327,7.87-1.838,1.793-4.52,2.891-8.2,3.333l-6,.736,1.663-13.719h0ZM374.1,328Z" transform="translate(102.366 47.805)" fill="#e7f2f2"/>
  <path id="Path_28" data-name="Path 28" d="M518.521,149.643c-.523.656-1.65,2.262-3.394,4.792s-3.716,5.434-5.9,8.673-4.373,6.572-6.546,9.945-3.89,6.237-5.124,8.579a48.986,48.986,0,0,0-4.279,10.574,79.173,79.173,0,0,0-1.8,8.071l-5.956,48.76L426.664,304.38c.349-.442,1.167-1.579,2.468-3.44s2.75-3.962,4.346-6.344,3.192-4.818,4.789-7.294,2.844-4.577,3.756-6.277a33.783,33.783,0,0,0,3.018-7.428c.657-2.463,1.127-4.417,1.422-5.836l6.854-56.83,65.2-61.287M491.68,167.149l-61.193,57.513q.684-.984,3.353-4.778,2.676-3.814,5.969-8.633t6.546-9.945c2.173-3.413,3.9-6.291,5.218-8.646a59.991,59.991,0,0,0,3.206-7.549,53.978,53.978,0,0,0,1.9-6.8,57.431,57.431,0,0,0,1.261-6.719h.094l.067-.321,33.574-4.109m11.227,73.4h0m0,0q-3.5,4.8-6.626,9.262c-1.247,1.74-2.28,3.226-3.085,4.457s-1.61,2.449-2.388,3.667-1.543,2.449-2.294,3.667-1.368,2.289-1.851,3.212a35.763,35.763,0,0,0-2.481,5.729,50.633,50.633,0,0,0-1.449,5.193,32.18,32.18,0,0,0-.872,5.073l-.2.027-4,33.9-37.5,4.591,2.723-22.406,41.609-39.2v.094l18.417-17.266M518.521,137.61a12.026,12.026,0,0,0-8.263,3.279L494.712,155.5a11.964,11.964,0,0,0-3.018-.388,11.061,11.061,0,0,0-1.475.094l-33.574,4.109a12.56,12.56,0,0,0-10.677,10.788,46.779,46.779,0,0,1-1.006,5.3c-.04.161-.08.335-.107.509a42.679,42.679,0,0,1-1.489,5.287,47.334,47.334,0,0,1-2.468,5.836c-1.18,2.1-2.763,4.725-4.735,7.816-2.106,3.306-4.239,6.545-6.331,9.623-2.133,3.132-4.118,6-5.875,8.5q-2.716,3.855-3.394,4.859a12.051,12.051,0,0,0,9.939,18.885,12.176,12.176,0,0,0,7.914-2.945l-3.863,32.029c-.188.9-.537,2.369-1.167,4.7a22.614,22.614,0,0,1-1.958,4.778q-1.187,2.208-3.327,5.541c-1.529,2.382-3.085,4.765-4.641,7.08s-2.978,4.39-4.2,6.13c-1.637,2.315-2.052,2.864-2.119,2.958a12.057,12.057,0,0,0,9.524,19.461,12.2,12.2,0,0,0,1.717-.12l-.188,1.579A12.043,12.043,0,0,0,440.172,331.4a11.064,11.064,0,0,0,1.475-.094l37.5-4.591a12.053,12.053,0,0,0,10.516-10.547l3.756-31.815a11.931,11.931,0,0,0,.483-2.516,20.611,20.611,0,0,1,.55-3.159c.027-.134.067-.254.094-.388a37,37,0,0,1,1.113-3.948,24.511,24.511,0,0,1,1.663-3.828l.04-.08c.362-.683.858-1.539,1.462-2.53.711-1.151,1.435-2.316,2.173-3.48s1.5-2.329,2.28-3.493c.724-1.1,1.69-2.476,2.844-4.1.013-.027.04-.053.054-.08,1.958-2.784,4.091-5.782,6.385-8.914a12.044,12.044,0,0,0-9.631-19.314h0a11.743,11.743,0,0,0-2.763.321l3.286-26.9c.174-1.071.563-3.078,1.5-6.625a36.787,36.787,0,0,1,3.246-7.95c0-.027.027-.04.04-.067,1.06-2.008,2.616-4.6,4.614-7.709,2.119-3.306,4.279-6.585,6.412-9.73,2.186-3.239,4.145-6.13,5.835-8.579,2.28-3.306,2.87-4.082,2.964-4.2a12.057,12.057,0,0,0-9.524-19.461h0Zm0,24.092Zm-15.627,90.907Z" transform="translate(141.521 46.587)" fill="#e7f2f2"/>
  <path id="Path_29" data-name="Path 29" d="M690.464,125.949a201.878,201.878,0,0,0-18.632,21.08q-5.09,6.384-8.37,11.363T657.1,169.061a128.506,128.506,0,0,0-5.66,11.926,73.954,73.954,0,0,0-3.97,12.662l-13.2,109.016-36.821,4.511Q589.888,291.8,584,279.683q-3.581-7.308-5.714-11.577-2.113-4.256-3.85-7.83t-2.924-5.9c-.791-1.566-1.194-2.369-1.194-2.436-1.073-2.249-2.4-3.359-3.97-3.359a2.387,2.387,0,0,0-.429.027,7.56,7.56,0,0,0-4.091,2.4,41.614,41.614,0,0,0-6.8,7.549,19.045,19.045,0,0,0-2.7,6.05l-5.942,48.853-29.456,3.614a100.243,100.243,0,0,0-19.758,5.006,165.933,165.933,0,0,0-16.526,7.04,119.5,119.5,0,0,0-11.884,6.679q-4.648,3.052-5.755,3.882l127.47-119.831,13.588,27.866,5.513-45.922,80.858-75.836m-38.752,28.509-57.612,54.194a67.1,67.1,0,0,0,6.331-9.677,136.748,136.748,0,0,0,6.009-12.327q2.8-6.5,4.883-12.929a100.017,100.017,0,0,0,3.085-11.417l.389-3.333,36.914-4.524m-87.873,10.761,24,49.268-24.467,23.088-6.251-12.755L554.6,245.794l-41.811,39.23L526.8,169.743l37.008-4.537M690.424,113.89a12.036,12.036,0,0,0-8.263,3.266L654.81,142.814a12.134,12.134,0,0,0-3.125-.415,11.058,11.058,0,0,0-1.476.094l-36.914,4.524a12.066,12.066,0,0,0-10.516,10.56l-.335,2.838a90.489,90.489,0,0,1-2.629,9.57c-1.288,3.935-2.8,7.95-4.507,11.926-1.543,3.587-3.193,7.04-4.95,10.266l-15.694-32.216a12.094,12.094,0,0,0-10.852-6.786,11.064,11.064,0,0,0-1.476.094L525.328,157.8a12.051,12.051,0,0,0-10.516,10.507l-14.017,115.28a12.332,12.332,0,0,0,.147,3.855L454.7,330.905a12.06,12.06,0,0,0,15.6,18.35c.134-.094,1.033-.75,5.07-3.4a110.7,110.7,0,0,1,10.664-5.969,153.613,153.613,0,0,1,15.292-6.518,89.6,89.6,0,0,1,17.223-4.377l29.282-3.587A12.051,12.051,0,0,0,558.352,314.9l5.848-48h0q1.489,3.052,3.246,6.585,2.113,4.236,5.687,11.524c3.957,8.151,8.491,17.427,13.454,27.505a12.073,12.073,0,0,0,10.825,6.732,11.066,11.066,0,0,0,1.476-.094l36.821-4.511a12.051,12.051,0,0,0,10.516-10.507l13.119-108.427a63.546,63.546,0,0,1,3.219-10.105,116.12,116.12,0,0,1,5.111-10.788c1.878-3.48,3.836-6.773,5.835-9.784,1.972-3,4.574-6.532,7.726-10.48a1.493,1.493,0,0,0,.134-.174,190.8,190.8,0,0,1,17.518-19.822,12.044,12.044,0,0,0-8.478-20.625h0Zm0,24.092Z" transform="translate(153.925 38.559)" fill="#e7f2f2"/>
  <path id="Path_30" data-name="Path 30" d="M724.6,109.136q-8.732,10.018-14.621,18.1c-2.4,3.212-4.185,5.782-5.379,7.723a32.657,32.657,0,0,0-2.763,5.461,11.151,11.151,0,0,0-.9,4.39,2.136,2.136,0,0,0,1.918,2.2l61.059-7.482-3.5,29.071-44.373,5.434-5.54,45.721-55.466,52.146a109.118,109.118,0,0,0,7.082-9.623c1.3-1.887,2.32-3.493,3.085-4.859s1.5-2.771,2.213-4.256,1.341-2.958,1.891-4.457a22.153,22.153,0,0,0,1.154-4.363l7.954-65.7-31.911,3.908,78.068-73.4m39.316,30.383h0m-91.7,11.23-61.274,57.62c.523-.656,1.663-2.262,3.447-4.792s3.769-5.434,5.956-8.687,4.373-6.572,6.546-9.945,3.876-6.277,5.11-8.686a50.273,50.273,0,0,0,2.508-5.528c.7-1.847,1.3-3.587,1.8-5.247s.885-3.172,1.18-4.564a29.663,29.663,0,0,0,.563-3.493l.389-2.53,33.776-4.136m58.4,59.173q-3.984,5.662-7.713,10.989c-1.408,2.1-2.589,3.841-3.541,5.26s-1.9,2.851-2.857,4.323-1.851,2.9-2.709,4.31-1.583,2.664-2.173,3.8a44.275,44.275,0,0,0-3.635,8.941q-1.207,4.377-1.677,7.013l-4.708,38.668-37.6,4.6,3.474-28.469,63.138-59.44M724.573,97.1a12.058,12.058,0,0,0-8.276,3.279L675.13,139.09a11.935,11.935,0,0,0-2.938-.361,11.054,11.054,0,0,0-1.475.094l-33.776,4.136A12.041,12.041,0,0,0,626.479,153.1l-.389,2.53c-.04.241-.067.5-.094.736a18.565,18.565,0,0,1-.362,2.1c-.228,1.057-.537,2.262-.925,3.587-.416,1.365-.912,2.851-1.516,4.4a41.734,41.734,0,0,1-1.918,4.229c-.013.04-.04.067-.054.107-1.06,2.061-2.576,4.631-4.52,7.656-2.106,3.279-4.266,6.558-6.412,9.731-2.159,3.212-4.131,6.063-5.835,8.5-2.374,3.373-2.978,4.163-3.072,4.283a12.049,12.049,0,0,0,9.51,19.461,12.179,12.179,0,0,0,8.276-3.279l24.373-22.914a11.9,11.9,0,0,0,2.924.361,11.066,11.066,0,0,0,1.475-.094l16.606-2.034-6.076,50.165a11.068,11.068,0,0,1-.537,1.927c-.416,1.124-.9,2.249-1.435,3.373-.6,1.245-1.221,2.436-1.864,3.574-.577,1.031-1.435,2.356-2.522,3.948-.053.067-.094.147-.148.228a99.1,99.1,0,0,1-6.331,8.579,12.039,12.039,0,0,0,7.847,19.581l-1.529,12.541a12.046,12.046,0,0,0,11.978,13.5,11.058,11.058,0,0,0,1.476-.094l37.6-4.6a12.051,12.051,0,0,0,10.516-10.507l4.668-38.293c.188-1.017.59-2.757,1.382-5.635a32.437,32.437,0,0,1,2.656-6.5c0-.027.027-.04.04-.067.469-.9,1.06-1.941,1.757-3.078q1.207-1.967,2.575-4.1c.912-1.419,1.811-2.784,2.7-4.069.952-1.419,2.119-3.145,3.514-5.22q3.682-5.26,7.619-10.855a12.054,12.054,0,0,0-9.872-18.979,12.276,12.276,0,0,0-5.473,1.3l1.744-14.348,35-4.283a12.052,12.052,0,0,0,10.516-10.52l3.461-28.723a12.9,12.9,0,0,0,.134-1.78A12.058,12.058,0,0,0,764,127.486h-.4a12.006,12.006,0,0,0-1.4.107l-41.274,5.059c3.487-4.671,7.766-9.918,12.73-15.606a12.053,12.053,0,0,0-9.121-19.956h0Zm0,24.092ZM730.6,221.98Z" transform="translate(204.414 32.873)" fill="#e7f2f2"/>
  <path id="Path_31" data-name="Path 31" d="M177.78,398.851C323.614,344.63,477.6,313.5,631.807,294.532c16.19-1.633,53.936-6.117,69.684-7.121,11.563-.87,34.983-2.65,46.559-3.52,36.217-2.275,80.415-4.136,116.605-4.029,11.482-.04,35.13.027,46.639.134-11.7.977-34.822,2.757-46.492,3.574C633.041,300.3,401.842,336.653,177.78,398.837h0Z" transform="translate(60.683 94.727)" fill="#d3882d"/>
  <path id="Path_32" data-name="Path 32" d="M763.945,159.118l95.774-102.5q-1.328,1.686-5.781,8.164t-10.06,14.776q-5.594,8.312-11.147,16.945c-3.7,5.769-6.613,10.627-8.719,14.616a83.762,83.762,0,0,0-7.3,17.989,135.643,135.643,0,0,0-3.058,13.746L803.5,225.893,718.54,318.259q.885-1.124,4.2-5.849t7.4-10.815q4.085-6.083,8.142-12.434t6.412-10.694a57.4,57.4,0,0,0,5.151-12.662q1.69-6.3,2.428-9.945l11.683-96.77Zm37.8,81.565.027.161,31.348-29.406q-5.956,8.191-11.294,15.78-3.18,4.457-5.258,7.589t-4.065,6.251q-1.992,3.132-3.9,6.237t-3.152,5.461a61.575,61.575,0,0,0-4.225,9.744,86.32,86.32,0,0,0-2.482,8.86,53.523,53.523,0,0,0-1.475,8.646l-.335.04-6.814,57.727-48.585,5.956,4.641-38.159,55.587-64.888ZM813.992,86.441l-88.919,96.074q1.147-1.666,5.7-8.151t10.154-14.71q5.614-8.231,11.147-16.945,5.553-8.713,8.88-14.723a103.365,103.365,0,0,0,5.46-12.862,92.935,92.935,0,0,0,3.246-11.578,98.356,98.356,0,0,0,2.16-11.444l.161-.027.107-.522,41.9-5.126Z" transform="translate(245.282 19.176)" fill="#d3882d"/>
  <path id="Path_33" data-name="Path 33" d="M850.824,126.892l-61.274,57.62c.523-.656,1.663-2.262,3.448-4.792s3.769-5.434,5.956-8.687,4.373-6.572,6.546-9.945,3.876-6.277,5.111-8.686a50.3,50.3,0,0,0,2.508-5.528c.7-1.847,1.3-3.587,1.8-5.247s.885-3.172,1.18-4.564a29.7,29.7,0,0,0,.563-3.493l.389-2.53,33.776-4.136Zm30.637-3.748,61.059-7.482-3.5,29.071-44.373,5.434-5.54,45.721-55.466,52.146a109.116,109.116,0,0,0,7.082-9.623c1.3-1.887,2.321-3.493,3.085-4.859s1.5-2.771,2.213-4.256,1.341-2.958,1.891-4.457a22.145,22.145,0,0,0,1.154-4.363l7.954-65.7L825.11,158.68l78.068-73.4q-8.732,10.018-14.621,18.1c-2.4,3.212-4.185,5.782-5.379,7.723a32.633,32.633,0,0,0-2.763,5.461,11.152,11.152,0,0,0-.9,4.39,2.136,2.136,0,0,0,1.918,2.2ZM846.089,245.505l63.139-59.44q-3.984,5.662-7.713,10.989c-1.408,2.1-2.589,3.841-3.541,5.26s-1.9,2.851-2.857,4.323-1.851,2.9-2.71,4.31-1.583,2.664-2.173,3.8a44.269,44.269,0,0,0-3.635,8.941q-1.207,4.377-1.677,7.013l-4.708,38.668-37.6,4.6,3.474-28.469Z" transform="translate(269.523 28.876)" fill="#d3882d"/>
  <path id="Path_34" data-name="Path 34" d="M843.645,10.847h0c-49.6-16.891-92.447,11.738-95.693,63.937h0a5.647,5.647,0,0,0,3.595,5.367h0c49.6,16.891,92.447-11.738,95.693-63.937h0A5.634,5.634,0,0,0,843.645,10.847Z" transform="translate(255.321 2.043)" fill="#e7f2f2"/>
  <path id="Path_35" data-name="Path 35" d="M817.727,8.034a87.032,87.032,0,0,1,27.967,4.845,5.6,5.6,0,0,1,3.595,5.367h0c-2.616,42.041-30.905,68.8-67.739,68.8A87.032,87.032,0,0,1,753.582,82.2h0a5.6,5.6,0,0,1-3.595-5.367h0c2.616-42.041,30.905-68.8,67.739-68.8m0-8.031c-20.188,0-38.793,7.455-52.38,20.973-13.91,13.84-22,32.979-23.38,55.358a13.548,13.548,0,0,0,9.027,13.451,94.8,94.8,0,0,0,30.557,5.287c20.188,0,38.792-7.455,52.38-20.973,13.91-13.84,22-32.979,23.38-55.358a13.576,13.576,0,0,0-9.028-13.465A94.794,94.794,0,0,0,817.727-.01h0Z" transform="translate(253.272 0.01)" fill="#d3882d"/>
  <path id="Path_36" data-name="Path 36" d="M843.645,10.847h0c-49.6-16.891-92.447,11.738-95.693,63.937h0a5.647,5.647,0,0,0,3.595,5.367h0c49.6,16.891,92.447-11.738,95.693-63.937h0A5.634,5.634,0,0,0,843.645,10.847Zm-86.639,47.18c.751-15,10.785-29.539,24.641-35.455a90.159,90.159,0,0,0-20.04,25.457c-1.73,3.186-3.045,6.558-4.6,10Zm56.378-10.186c-.094.054-.282,0-.4-.04-3.367-1.258-6.734-2.53-10.1-3.788a1.241,1.241,0,0,0-.537-.107c3.233,1.606,6.465,3.226,9.752,4.859a5.727,5.727,0,0,1-.792.522.745.745,0,0,1-.483,0q-5.533-2.028-11.08-4.069a1.111,1.111,0,0,0-.483-.094c3.421,1.753,6.854,3.52,10.342,5.314a9.186,9.186,0,0,1-.912.576c-.094.054-.282-.027-.416-.067q-5.553-2.068-11.08-4.163l-.443-.161c0,.027-.027.054-.04.094,3.474,1.74,6.948,3.493,10.476,5.273a9.121,9.121,0,0,1-1.033.642c-.121.067-.335,0-.483-.04-3.863-1.419-7.74-2.851-11.6-4.283a1.51,1.51,0,0,0-.563-.12c3.662,1.807,7.324,3.627,11.053,5.461-.456.281-.832.549-1.247.776a.66.66,0,0,1-.443-.054q-5.855-2.128-11.7-4.256c-.174-.067-.349-.12-.523-.187-.013.027-.027.04-.04.067,3.662,1.82,7.324,3.641,11.053,5.488-.5.321-.925.616-1.368.87-.094.054-.255,0-.375-.054q-6.077-2.008-12.166-4.015a.58.58,0,0,0-.4-.027c3.648,1.794,7.3,3.574,11,5.394-.483.361-.926.723-1.382,1.044a.528.528,0,0,1-.4-.013q-6.137-1.947-12.273-3.908a.747.747,0,0,0-.389-.04l11.24,5.528c-.416.4-.8.776-1.22,1.124-.08.067-.309.013-.443-.027q-6.2-1.927-12.381-3.855a.748.748,0,0,0-.389-.04l11.522,5.608c-.442.468-.832.924-1.274,1.338-.08.08-.322.054-.47,0q-4.145-1.2-8.29-2.436c-1.489-.442-2.978-.87-4.453-1.312a.676.676,0,0,0-.4-.027l11.8,5.809c-.416.5-.8.977-1.207,1.432-.054.067-.268.04-.389,0q-3.8-1.164-7.606-2.356c-1.8-.562-3.595-1.124-5.406-1.686-.121-.04-.255-.067-.456-.134.147.187.241.308.376.5a34.286,34.286,0,0,0-6.653,8.887c-.054-.214-.08-.308-.094-.4-.121-.95-.228-1.9-.362-2.851a.78.78,0,0,1,.2-.656,51.44,51.44,0,0,1,5.674-5.916.734.734,0,0,0,.268-.7q-.7-6.987-1.382-13.987c0-.134,0-.335.067-.4,1.006-.883,2.039-1.753,3.139-2.69-.013,5.555-.04,10.989-.054,16.543.563-.576,1.06-1.071,1.529-1.579.067-.067.054-.228.054-.348-.282-3.453-.563-6.893-.845-10.346-.121-1.405-.241-2.811-.349-4.229,0-.107,0-.268.08-.321.925-.723,1.878-1.432,2.911-2.222-.013,5.273-.04,10.44-.054,15.713.563-.522,1.073-.977,1.543-1.459.08-.08.054-.281.04-.428-.2-2.222-.416-4.444-.617-6.679-.215-2.3-.416-4.618-.644-6.92a.53.53,0,0,1,.268-.589c.872-.562,1.744-1.164,2.669-1.78-.027,5.006-.04,9.931-.067,14.95.563-.468,1.087-.883,1.583-1.325.08-.067.054-.281.04-.415q-.423-4.437-.872-8.887c-.134-1.379-.282-2.757-.4-4.136a.568.568,0,0,1,.148-.4c.939-.576,1.9-1.111,2.951-1.727-.054,4.792-.121,9.49-.175,14.268.563-.428,1.087-.79,1.57-1.178.094-.067.094-.294.08-.442q-.4-4.136-.8-8.285c-.134-1.379-.268-2.757-.43-4.136a.4.4,0,0,1,.255-.468c.859-.4,1.717-.816,2.656-1.272-.027,4.511-.054,8.927-.094,13.411.577-.388,1.087-.709,1.583-1.071a.513.513,0,0,0,.094-.388c-.268-2.5-.55-5.006-.832-7.509-.161-1.392-.308-2.784-.47-4.176a.381.381,0,0,1,.282-.482c.778-.268,1.543-.562,2.375-.857v12.5c.536-.321,1.019-.589,1.489-.91.094-.054.107-.281.094-.428-.268-2.329-.537-4.658-.818-6.973-.161-1.405-.349-2.8-.523-4.256.8-.241,1.583-.482,2.415-.723.094,3.868.174,7.669.255,11.524.59-.294,1.113-.549,1.65-.816-.55-3.6-1.113-7.174-1.663-10.788.939-.254,1.838-.482,2.817-.75.054,3.627.107,7.214.161,10.868.5-.241.966-.442,1.408-.683a.4.4,0,0,0,.121-.361q-.684-4.718-1.382-9.423c-.054-.361.027-.5.389-.562.617-.107,1.234-.281,1.891-.442.121,3.386.255,6.719.376,10.159.523-.241,1.019-.468,1.5-.709.054-.027.054-.241.027-.361-.537-2.971-1.073-5.929-1.609-8.9a2.167,2.167,0,0,0-.027-.241c.724-.174,1.449-.335,2.24-.522.2,3.159.4,6.291.617,9.476.523-.254.979-.455,1.422-.709.081-.04.121-.254.094-.361-.268-1.258-.55-2.53-.831-3.788-.322-1.472-.657-2.945-.979-4.417-.013-.08-.027-.161-.04-.281.751-.174,1.5-.335,2.307-.522.2,2.918.4,5.809.617,8.794.456-.228.859-.4,1.247-.629.067-.04.08-.254.054-.388-.282-1.352-.577-2.717-.859-4.069-.268-1.231-.523-2.476-.792-3.761.778-.174,1.543-.348,2.375-.535.107,2.757.215,5.474.335,8.258.483-.241.912-.428,1.328-.669.081-.04.107-.254.081-.375-.3-1.486-.6-2.985-.912-4.47-.188-.924-.376-1.847-.563-2.8.8-.187,1.583-.361,2.414-.562.067,2.516.134,5.006.2,7.589.483-.254.912-.468,1.315-.723.067-.04.08-.254.067-.388-.228-1.124-.456-2.235-.684-3.359-.215-1.044-.43-2.075-.657-3.172.885-.228,1.744-.442,2.669-.669-.08,2.342-.161,4.618-.241,6.987a12.548,12.548,0,0,0,1.14-.616c.094-.067.121-.308.108-.455-.228-1.847-.456-3.681-.684-5.528-.014-.147-.04-.294-.054-.455.751-.214,1.462-.428,2.24-.656-.094,2.142-.188,4.216-.281,6.4.429-.254.791-.442,1.113-.669.08-.054.08-.268.067-.4-.188-1.673-.389-3.346-.6-5.006-.04-.308.027-.442.335-.549.63-.2,1.234-.455,1.891-.709-.121,1.954-.241,3.868-.362,5.876.4-.254.738-.442,1.046-.683.08-.054.08-.268.067-.4-.161-1.5-.322-3-.51-4.5a.481.481,0,0,1,.349-.6c.563-.228,1.127-.5,1.744-.776-.108,1.794-.215,3.547-.322,5.394.389-.268.724-.482,1.033-.736.081-.067.081-.268.067-.4-.161-1.312-.335-2.623-.5-3.922-.013-.147-.04-.294-.053-.455.657-.348,1.287-.683,2-1.057-.081,1.62-.148,3.2-.228,4.859.376-.308.7-.549.979-.83a.5.5,0,0,0,.067-.4c-.174-1.124-.362-2.262-.563-3.386a.464.464,0,0,1,.282-.576c.55-.308,1.087-.642,1.69-1-.161,1.5-.308,2.918-.469,4.43.376-.375.684-.656.952-.964a.576.576,0,0,0,.081-.4c-.107-.964-.215-1.927-.336-2.891a.46.46,0,0,1,.242-.522c.483-.294.939-.629,1.448-.977-.08,1.178-.161,2.3-.255,3.533.282-.321.51-.562.711-.83a.585.585,0,0,0,.04-.375c-.08-.723-.161-1.446-.255-2.168a.451.451,0,0,1,.2-.509c.469-.335.912-.7,1.422-1.084-.081.87-.148,1.686-.228,2.583a1.345,1.345,0,0,0,.51-1.017,14.482,14.482,0,0,1,.027-1.526.723.723,0,0,1,.215-.468c.255-.254.537-.482.885-.776-.027.522-.053.977-.08,1.486a1.445,1.445,0,0,0,.483-1.164c-.08-.776.429-1.178,1.006-1.686-.175.99-.309,1.874-.483,2.757a.658.658,0,0,1-.255.294,15.548,15.548,0,0,0-1.382,1.138c.456-.147.912-.281,1.435-.455-.107.442-.188.843-.309,1.218-.027.107-.174.187-.295.241-.885.455-1.771.91-2.629,1.419.845-.147,1.69-.308,2.616-.482a13.935,13.935,0,0,1-.443,1.379c-.04.107-.255.174-.4.214-1.127.294-2.267.576-3.394.95h3.434c-.215.549-.389,1.044-.6,1.526-.04.08-.242.12-.376.134-1.529.107-3.072.187-4.614.348,1.475.228,2.964.455,4.507.7-.241.522-.47,1.031-.724,1.5-.054.094-.282.12-.416.107-1.811-.161-3.622-.321-5.432-.5a.144.144,0,0,0-.134.067c1.757.535,3.5,1.071,5.312,1.62-.215.375-.4.736-.63,1.057a.527.527,0,0,1-.416.08l-6.4-1.124a.3.3,0,0,0-.174.04c2.052.75,4.118,1.512,6.17,2.262a1.356,1.356,0,0,1-1.61.776c-2.173-.509-4.359-1.017-6.532-1.512a.685.685,0,0,0-.4,0c2.307.964,4.6,1.927,6.975,2.9a7.864,7.864,0,0,1-.684.763c-.081.08-.3.04-.443,0q-3.883-1.1-7.766-2.235a.7.7,0,0,0-.376-.013c2.468,1.138,4.936,2.275,7.471,3.44a8.232,8.232,0,0,1-.832.736c-.094.067-.295.013-.443-.04l-7.847-2.771a.945.945,0,0,0-.483-.067c2.562,1.272,5.111,2.543,7.7,3.828a7.218,7.218,0,0,1-.738.616.593.593,0,0,1-.429,0l-8.612-3.052a.549.549,0,0,0-.389-.027c2.7,1.365,5.393,2.73,8.156,4.136a7.216,7.216,0,0,1-.778.6c-.094.054-.282,0-.4-.04q-4.426-1.686-8.826-3.386a.767.767,0,0,0-.429-.054c2.83,1.432,5.647,2.878,8.531,4.35a3.948,3.948,0,0,1-.684.5.677.677,0,0,1-.483-.027c-3.112-1.191-6.237-2.4-9.349-3.6a.945.945,0,0,0-.483-.08c3,1.526,6.023,3.052,9.095,4.618-.309.214-.55.415-.818.562Zm1.127,20A86.528,86.528,0,0,0,834.7,44.214c1.784-2.985,3.179-6.17,4.8-9.4C838.2,49.166,828.018,62.711,814.511,67.838Z" transform="translate(255.321 2.043)"/>
  <path id="Path_37" data-name="Path 37" d="M224.819,261.184q36.257,18.27,30.758,57.366-2.495,18.25-11.817,31.788a86.106,86.106,0,0,1-22.83,22.687,114.958,114.958,0,0,1-29.872,14.362,167.244,167.244,0,0,1-33.1,6.96,153.152,153.152,0,0,1-17.156.79,123.757,123.757,0,0,1-18.028-1.486,93.451,93.451,0,0,1-17.4-4.47,65.336,65.336,0,0,1-15.4-8,10.428,10.428,0,0,0-4.789-.442,35.662,35.662,0,0,0-9.524,2.664,105.122,105.122,0,0,0-11.509,5.635q-6.056,3.413-12.569,7.562t-12.528,8.579Q24.627,415.212,9.02,427.753L128.509,319.339q-2.354,18.089,5.526,25.3,8.229,7.509,29.5,5.247a53.7,53.7,0,0,0,10.986-2.342,39.946,39.946,0,0,0,9.859-4.751,28.011,28.011,0,0,0,7.592-7.428,23.034,23.034,0,0,0,3.863-10.507q1.63-11.544-5.607-17.092-7.585-5.822-28.5-10.721-3.561-.723-6.814-1.646l47.028-42.844q6.841,1.967,12.542,4.122a112.7,112.7,0,0,1,10.369,4.511Zm-84.386,35.107L71.9,358.609q-5.855-14.857-3.273-33.9l.2-1.124,17.357-1.834v-.161a87.76,87.76,0,0,0,17.88-4.256,118.069,118.069,0,0,0,17.854-7.643,85.63,85.63,0,0,0,18.511-13.4Zm-13.2-9.65q-43.963-17.768-38.377-57.66A65.653,65.653,0,0,1,101.387,197.9a96.594,96.594,0,0,1,24.467-22.861,130.335,130.335,0,0,1,31.241-14.9,161.6,161.6,0,0,1,32.85-7.174,134.206,134.206,0,0,1,20.818-.535,87.624,87.624,0,0,1,20.536,3.44,62.8,62.8,0,0,1,18.243,8.727A47.932,47.932,0,0,1,263.5,179.94a10.256,10.256,0,0,1,.952,1.553,11.653,11.653,0,0,1,.644,1.593l-63.9,58.2a35.6,35.6,0,0,0,5.835-8.352,31.43,31.43,0,0,0,2.71-8.017l.268-1.927q2.052-13.471-5.245-19.648-7.485-6.465-21.717-4.966a59.256,59.256,0,0,0-11.133,2.356,44.828,44.828,0,0,0-10.785,4.925,31.709,31.709,0,0,0-8.437,7.683,23.031,23.031,0,0,0-4.413,10.641q-1.046,8.011,6.828,13.639,8.712,6.023,31.536,11.029c.966.214,1.865.415,2.669.589s1.6.388,2.361.616L144.632,292.53q-5.05-1.365-9.323-2.878c-2.857-1.017-5.54-2.021-8.075-3.012ZM235.4,222.2l63.916-58.035q-.825,1.185-3.649,5.126t-6.264,8.794q-3.441,4.859-6.841,10.038c-2.267,3.453-4.078,6.344-5.406,8.7a54.636,54.636,0,0,0-3.528,7.709,69.575,69.575,0,0,0-2.186,6.933,62.8,62.8,0,0,0-1.328,6.933l-.63.067v.161l-34.084,3.6Z" transform="translate(3.075 51.544)"/>
  <path id="Path_38" data-name="Path 38" d="M193.16,379.663l75.76-71.125L264.8,342.253l-20.912,2.556a32.026,32.026,0,0,0-6.063,2.583c-2.374,1.245-4.909,2.717-7.632,4.417s-5.513,3.56-8.384,5.595-5.674,4.122-8.4,6.251q-9.678,7.248-20.255,16.008ZM353.279,209.305q6.016,10.8,4.145,25.551a53.861,53.861,0,0,1-7.351,22.031A60.7,60.7,0,0,1,335.3,273.363,75.216,75.216,0,0,1,315.479,284.3a99.276,99.276,0,0,1-22.548,5.5L283.9,290.91a20.988,20.988,0,0,0-3.206.7,15.1,15.1,0,0,0-3.407,1.419l-49.054,45.989,7.834-65.1a5.109,5.109,0,0,0-1.019-2.168c-.6-.857-1.784-1.178-3.555-.95a10.821,10.821,0,0,0-2.75.79,28.981,28.981,0,0,0-3.7,1.9q-4.165,2.59-7.82,4.885t-6.425,4.015q-3.239,1.988-5.915,3.707l100.938-94.9a86.666,86.666,0,0,1,13.6-.375,52.823,52.823,0,0,1,13.293,2.356,40.166,40.166,0,0,1,11.737,5.916,30.847,30.847,0,0,1,8.84,10.252ZM329.872,160.76l-90.395,84.951,5.754-47.14,26.505-3.252c1.69-.335,3.635-.83,5.848-1.459s4.534-1.432,6.975-2.4,4.95-2.1,7.552-3.413a50.3,50.3,0,0,0,7.539-4.7q5.594-3.975,10.986-7.964t9.671-7.295q5.01-3.795,9.564-7.335ZM319.4,239.206q1.207-9.6-3.42-14.9-4.406-5.019-13.655-4.1l-23.072,2.824-4.816,40.26,22.186-2.717c6.278-.776,11.455-2.9,15.506-6.425s6.479-8.5,7.284-14.964Z" transform="translate(65.935 54.422)"/>
  <path id="Path_39" data-name="Path 39" d="M316.016,364.84l55.01-51.878-1.61,15.312a82.577,82.577,0,0,0-14.782,6.987,200.382,200.382,0,0,0-17.009,11.23,222.509,222.509,0,0,0-21.609,18.363Zm132.93-180.757q13.883,10.038,11.173,31.748-1.871,15.539-9.416,26.354t-21.127,18.645L444.8,296.258v-.094l9.323,21.629-41.032,5.033-19.812-48.385-17.867,2.2-2.294,18.578a2.988,2.988,0,0,0,.7,1.165,2.256,2.256,0,0,0,2,.4,11.908,11.908,0,0,0,3.166-1.031,50.865,50.865,0,0,0,5.137-2.771,19.4,19.4,0,0,0-1.891,1.673c-1.194,1.111-2.736,2.57-4.641,4.4s-4.091,3.882-6.559,6.17-4.99,4.631-7.565,6.987q-8.933,8.452-20.362,19.207l-11.482,1.405,8.437-69.947a6.358,6.358,0,0,0-1.1-2.1c-.6-.816-1.744-1.124-3.447-.924a13.271,13.271,0,0,0-2.8.736,24.567,24.567,0,0,0-3.756,1.847q-4.185,2.51-7.82,4.832c-2.428,1.553-4.574,2.918-6.425,4.069-2.093,1.379-4.011,2.717-5.781,3.989l33.507-31.453v-.094l71.187-66.9q4.446-.341,9.135-.321a56.4,56.4,0,0,1,9.269.8,49.8,49.8,0,0,1,8.92,2.382A32.991,32.991,0,0,1,449,184.083Zm-15.225-33.836-90.314,84.844,6.143-50.473,30.731-3.761c1.677-.4,3.595-.924,5.741-1.553s4.413-1.405,6.787-2.329a76.132,76.132,0,0,0,7.27-3.279,62.637,62.637,0,0,0,7.19-4.31c2.495-1.834,5.017-3.667,7.538-5.5s4.95-3.587,7.27-5.273,4.467-3.226,6.452-4.671,3.7-2.677,5.178-3.721ZM422.36,223.139q1.066-9.075-3.152-13.438-4.145-4.457-13.762-3.293l-21.8,2.663-4.655,38.36,21.3-2.61q9.517-1.164,15.171-6.679t6.868-15.017Z" transform="translate(105.45 50.855)"/>
  <path id="Path_40" data-name="Path 40" d="M450.243,207.887l65.2-61.287c-.523.656-1.65,2.262-3.394,4.792s-3.716,5.434-5.9,8.673-4.373,6.572-6.546,9.945-3.89,6.237-5.124,8.579a48.988,48.988,0,0,0-4.279,10.574,79.181,79.181,0,0,0-1.8,8.071l-5.956,48.76L423.59,301.338c.349-.442,1.167-1.579,2.468-3.44s2.75-3.962,4.346-6.344,3.193-4.818,4.789-7.294,2.844-4.577,3.756-6.277a33.782,33.782,0,0,0,3.018-7.428c.657-2.463,1.127-4.417,1.422-5.836Zm31.174,46.792v.094l18.417-17.266q-3.5,4.8-6.627,9.262c-1.247,1.74-2.28,3.226-3.085,4.457s-1.61,2.449-2.388,3.667-1.543,2.449-2.294,3.667-1.368,2.289-1.851,3.212a35.754,35.754,0,0,0-2.482,5.729,50.722,50.722,0,0,0-1.449,5.193,32.183,32.183,0,0,0-.872,5.073l-.2.027-4,33.9-37.5,4.591,2.723-22.406Zm7.19-90.573L427.413,221.62q.684-.984,3.354-4.778,2.676-3.815,5.969-8.633t6.546-9.945c2.173-3.413,3.9-6.291,5.218-8.646a59.984,59.984,0,0,0,3.206-7.549,54.021,54.021,0,0,0,1.9-6.8,57.485,57.485,0,0,0,1.261-6.719h.094l.067-.321,33.575-4.109Z" transform="translate(144.596 49.629)"/>
  <path id="Path_41" data-name="Path 41" d="M606.528,198.726l80.858-75.836a201.86,201.86,0,0,0-18.632,21.08q-5.091,6.384-8.37,11.363T654.026,166a128.476,128.476,0,0,0-5.661,11.926,73.957,73.957,0,0,0-3.971,12.662L631.2,299.6l-36.821,4.511q-7.565-15.379-13.454-27.492-3.581-7.308-5.714-11.578-2.113-4.256-3.85-7.83t-2.924-5.9c-.791-1.566-1.194-2.369-1.194-2.436q-1.75-3.674-4.4-3.346a7.559,7.559,0,0,0-4.091,2.4,41.618,41.618,0,0,0-6.8,7.549,19.044,19.044,0,0,0-2.7,6.05l-5.942,48.853-29.456,3.614A100.251,100.251,0,0,0,494.095,319a165.933,165.933,0,0,0-16.526,7.04,119.485,119.485,0,0,0-11.884,6.679q-4.648,3.052-5.755,3.882L587.4,216.768l13.588,27.866,5.513-45.922Zm-54.969,44.021-41.811,39.23L523.766,166.7l37.008-4.537,24,49.268L560.3,234.516l-6.251-12.755-2.495,20.987ZM648.647,151.4l-57.612,54.194a67.091,67.091,0,0,0,6.331-9.677,136.758,136.758,0,0,0,6.009-12.327q2.8-6.5,4.883-12.929a100.027,100.027,0,0,0,3.085-11.417l.389-3.333,36.914-4.524Z" transform="translate(157.001 41.605)"/>
  <path id="Path_42" data-name="Path 42" d="M669.134,147.7l-61.274,57.62c.523-.656,1.663-2.262,3.447-4.792s3.769-5.434,5.956-8.687,4.373-6.572,6.546-9.945,3.876-6.277,5.111-8.687a50.355,50.355,0,0,0,2.508-5.528c.7-1.847,1.3-3.587,1.8-5.247s.885-3.172,1.18-4.564a29.677,29.677,0,0,0,.563-3.493l.389-2.53,33.776-4.136Zm30.637-3.748,61.059-7.482-3.5,29.071-44.372,5.434-5.54,45.721-55.465,52.146a109.056,109.056,0,0,0,7.082-9.623c1.3-1.887,2.32-3.493,3.085-4.859s1.5-2.771,2.213-4.256,1.341-2.958,1.891-4.457a22.145,22.145,0,0,0,1.154-4.363l7.954-65.7L643.42,179.49l78.068-73.4q-8.732,10.018-14.621,18.1c-2.4,3.212-4.185,5.782-5.379,7.723a32.651,32.651,0,0,0-2.763,5.461,11.159,11.159,0,0,0-.9,4.39,2.136,2.136,0,0,0,1.918,2.2ZM664.4,266.315l63.138-59.44q-3.984,5.662-7.713,10.989c-1.409,2.1-2.589,3.841-3.541,5.26s-1.9,2.851-2.857,4.323-1.851,2.9-2.71,4.31-1.583,2.664-2.173,3.8a44.3,44.3,0,0,0-3.635,8.941q-1.207,4.377-1.677,7.013l-4.708,38.668-37.6,4.6,3.474-28.469Z" transform="translate(207.5 35.919)"/>
  <path id="Path_43" data-name="Path 43" d="M205.1,153.611c2.321,0,4.668.054,7.029.174a87.624,87.624,0,0,1,20.536,3.44,62.8,62.8,0,0,1,18.243,8.727,47.932,47.932,0,0,1,13.964,15.339,10.257,10.257,0,0,1,.952,1.553,11.653,11.653,0,0,1,.644,1.593l-63.9,58.2a35.6,35.6,0,0,0,5.835-8.352,31.432,31.432,0,0,0,2.71-8.017l.268-1.927q2.052-13.471-5.245-19.648-6.076-5.26-16.606-5.247a49.427,49.427,0,0,0-5.124.281,59.251,59.251,0,0,0-11.133,2.356A44.828,44.828,0,0,0,162.483,207a31.71,31.71,0,0,0-8.437,7.683,23.031,23.031,0,0,0-4.413,10.641q-1.046,8.011,6.828,13.639,8.712,6.023,31.536,11.029c.966.214,1.864.415,2.669.589s1.6.388,2.361.616L145.984,293.88q-5.05-1.365-9.323-2.878c-2.857-1.017-5.54-2.021-8.075-3.011Q84.623,270.223,90.21,230.33a65.652,65.652,0,0,1,12.528-31.079A96.594,96.594,0,0,1,127.2,176.391a130.335,130.335,0,0,1,31.24-14.9,161.6,161.6,0,0,1,32.85-7.174,130.135,130.135,0,0,1,13.8-.723m95.586,11.9q-.825,1.185-3.649,5.126t-6.264,8.794q-3.441,4.859-6.841,10.038c-2.267,3.453-4.078,6.344-5.406,8.7A54.63,54.63,0,0,0,275,205.864a69.571,69.571,0,0,0-2.186,6.933,62.8,62.8,0,0,0-1.328,6.933l-.63.067v.161l-34.084,3.6,63.916-58.035m-97.4,88.4q6.841,1.967,12.542,4.122A112.639,112.639,0,0,1,226.2,262.56q36.257,18.27,30.758,57.366-2.495,18.25-11.817,31.788a86.107,86.107,0,0,1-22.83,22.687,114.961,114.961,0,0,1-29.872,14.361,167.243,167.243,0,0,1-33.1,6.96,151.567,151.567,0,0,1-15.748.79h-1.422a123.744,123.744,0,0,1-18.028-1.486,93.456,93.456,0,0,1-17.4-4.47,65.341,65.341,0,0,1-15.4-8,9.328,9.328,0,0,0-3.246-.522c-.5,0-1.006.027-1.543.08a35.658,35.658,0,0,0-9.524,2.663,105.12,105.12,0,0,0-11.509,5.635q-6.056,3.413-12.569,7.562T40.418,406.55q-14.426,10.038-30.033,22.58L129.874,320.716q-2.354,18.089,5.526,25.3,6.338,5.762,20.389,5.769a86.706,86.706,0,0,0,9.121-.522,53.713,53.713,0,0,0,10.986-2.342,39.949,39.949,0,0,0,9.859-4.751,28.012,28.012,0,0,0,7.592-7.428,22.977,22.977,0,0,0,3.863-10.507q1.63-11.544-5.607-17.092-7.585-5.822-28.5-10.721-3.561-.723-6.814-1.646l47.028-42.844m-61.488,43.74h0m0,0c-.55.509-1.1,1.017-1.65,1.5l1.65-1.5m-1.65,1.5L73.295,359.972q-5.855-14.857-3.273-33.9l.2-1.124,17.357-1.834v-.161a87.766,87.766,0,0,0,17.88-4.256,118.081,118.081,0,0,0,17.854-7.642,84.24,84.24,0,0,0,16.861-11.9m-10.3,21.536h0m75.251-172.445a137.433,137.433,0,0,0-14.366.75,167.653,167.653,0,0,0-33.95,7.4,136.012,136.012,0,0,0-32.528,15.513,102.28,102.28,0,0,0-25.808,24.119,71.027,71.027,0,0,0-13.548,33.568c-2.039,14.549.537,27.358,7.646,38.052,6.975,10.48,18.43,18.993,34.031,25.31q3.984,1.566,8.29,3.092c.161.054.322.12.483.174A77.551,77.551,0,0,1,120.82,306.3a111.95,111.95,0,0,1-17.035,7.295c-.027,0-.067.027-.094.027a82.445,82.445,0,0,1-16.794,4,5.508,5.508,0,0,0-1.167.281l-16.083,1.7a5.362,5.362,0,0,0-4.722,4.4l-.2,1.124c0,.067-.027.134-.027.2-1.824,13.558-.617,25.859,3.595,36.58a5.3,5.3,0,0,0,3.783,3.252,3.881,3.881,0,0,0,.671.107L6.776,425.127a5.362,5.362,0,0,0,6.975,8.138C24.013,425.02,34.02,417.5,43.49,410.9l.121-.08c3.877-2.851,7.995-5.675,12.247-8.379s8.37-5.193,12.314-7.4a100.154,100.154,0,0,1,10.905-5.34,30.769,30.769,0,0,1,8.048-2.289,8.609,8.609,0,0,1,.979-.054,5.237,5.237,0,0,1,.9.067,71.262,71.262,0,0,0,15.909,8.138,98.262,98.262,0,0,0,18.4,4.738,128.846,128.846,0,0,0,18.819,1.553H143.6a158.938,158.938,0,0,0,16.311-.816,173.1,173.1,0,0,0,34.178-7.187,120.321,120.321,0,0,0,31.267-15.031,92.2,92.2,0,0,0,24.225-24.079c6.667-9.677,10.946-21.147,12.716-34.09,4.011-28.442-7.31-49.589-33.655-62.867-3.26-1.633-6.921-3.226-10.865-4.738-3.93-1.486-8.29-2.931-12.971-4.27a5.539,5.539,0,0,0-1.475-.214,5.33,5.33,0,0,0-3.622,1.405l-1.274,1.151a4.775,4.775,0,0,0-.134-1.071,5.343,5.343,0,0,0-3.649-3.948c-.885-.268-1.811-.522-2.777-.736l-1.8-.388-.885-.2c-14.433-3.172-24.386-6.585-29.6-10.186-4.6-3.306-4.883-6.277-4.6-8.526a17.5,17.5,0,0,1,3.367-8.151,26.768,26.768,0,0,1,7.029-6.4,39.333,39.333,0,0,1,9.51-4.337A52.988,52.988,0,0,1,185,205.02a42.207,42.207,0,0,1,4.561-.254c5.661,0,10.06,1.325,13.092,3.948,1.274,1.084,5.057,4.283,3.447,14.8l-.268,1.874a26.682,26.682,0,0,1-2.24,6.545A30.289,30.289,0,0,1,198.619,239a5.359,5.359,0,0,0,7.592,7.549l25.218-22.968a5.166,5.166,0,0,0,.469,2.128,5.366,5.366,0,0,0,4.9,3.159,3.963,3.963,0,0,0,.563-.027l34.1-3.6a5.208,5.208,0,0,0,1.583-.415,5.337,5.337,0,0,0,3.783-4.444,57.265,57.265,0,0,1,1.207-6.317c.47-1.847,1.154-4,2.025-6.4a50.476,50.476,0,0,1,3.179-6.947c1.261-2.222,3.018-5.046,5.2-8.365,2.227-3.373,4.494-6.706,6.747-9.891q3.421-4.838,6.237-8.753c2.066-2.878,3.179-4.43,3.716-5.207a5.365,5.365,0,0,0-4.427-8.392,5.432,5.432,0,0,0-3.608,1.392l-25.245,22.914a5.664,5.664,0,0,0-.241-1.633,17.26,17.26,0,0,0-.939-2.329,15.737,15.737,0,0,0-1.3-2.168A53.6,53.6,0,0,0,254,161.507a68.184,68.184,0,0,0-19.8-9.476,94.087,94.087,0,0,0-21.784-3.654c-2.441-.12-4.9-.187-7.3-.187h0Zm95.586,22.606ZM146.976,299.14a5.2,5.2,0,0,0,2.642-1.312l1.288-1.178a5.381,5.381,0,0,0,3.9,5.22c2.253.642,4.655,1.218,7.136,1.727,16.3,3.815,23.34,7.4,26.371,9.73,2.039,1.566,4.641,4.524,3.568,12.1a17.7,17.7,0,0,1-2.964,8.191,23,23,0,0,1-6.17,6.036,34.973,34.973,0,0,1-8.545,4.109,47.685,47.685,0,0,1-9.872,2.1,82.879,82.879,0,0,1-8.545.482c-7.941,0-13.588-1.472-16.767-4.363-3.836-3.507-5.137-10.4-3.85-20.465a4.9,4.9,0,0,0,.067-.883,5.358,5.358,0,0,0-4.923-5.34l13.454-12.233c.55-.482,1.087-.977,1.636-1.486a5.444,5.444,0,0,0,1.583-2.476h0Z" transform="translate(1.709 50.167)" fill="#d3882d"/>
  <path id="Path_44" data-name="Path 44" d="M331.211,162.121l-90.395,84.951,5.754-47.14,26.505-3.252c1.69-.335,3.635-.83,5.848-1.459s4.534-1.432,6.975-2.4,4.95-2.1,7.552-3.413a50.976,50.976,0,0,0,7.538-4.7q5.593-3.975,10.986-7.964t9.671-7.294q5.01-3.795,9.564-7.335m-14.916,29.9c1.476,0,2.964.04,4.453.107a52.717,52.717,0,0,1,13.293,2.356,40.168,40.168,0,0,1,11.737,5.916,30.847,30.847,0,0,1,8.84,10.253q6.016,10.8,4.145,25.551a53.861,53.861,0,0,1-7.351,22.031,60.7,60.7,0,0,1-14.769,16.476,75.212,75.212,0,0,1-19.825,10.935,99.273,99.273,0,0,1-22.548,5.5l-9.027,1.111a21.011,21.011,0,0,0-3.206.7,15.1,15.1,0,0,0-3.407,1.419l-49.054,45.989,7.834-65.1a5.111,5.111,0,0,0-1.019-2.168,2.913,2.913,0,0,0-2.562-1.017,8.85,8.85,0,0,0-.993.067,10.827,10.827,0,0,0-2.75.79,28.987,28.987,0,0,0-3.7,1.9q-4.165,2.59-7.82,4.885t-6.425,4.015q-3.239,1.988-5.915,3.707l100.938-94.9a86.317,86.317,0,0,1,9.148-.482m-40.536,72.651L297.958,262c6.278-.776,11.455-2.9,15.506-6.425s6.479-8.5,7.284-14.964q1.207-9.6-3.421-14.9-3.722-4.236-10.878-4.243c-.885,0-1.811.054-2.777.147L280.6,224.438l-4.815,40.26m-5.5,45.226-4.118,33.715L245.256,346.2a32.026,32.026,0,0,0-6.063,2.583c-2.374,1.245-4.909,2.717-7.632,4.417s-5.513,3.56-8.384,5.595-5.674,4.122-8.4,6.251q-9.678,7.248-20.255,16.008l75.761-71.125m60.938-153.131a5.363,5.363,0,0,0-3.3,1.138c-3.045,2.369-6.237,4.818-9.5,7.295-2.857,2.208-6.076,4.644-9.618,7.268-3.514,2.6-7.176,5.26-10.892,7.9a.742.742,0,0,0-.107.08,46.147,46.147,0,0,1-6.747,4.2c-2.441,1.231-4.829,2.315-7.1,3.212s-4.453,1.646-6.492,2.235c-1.972.562-3.729,1-5.231,1.325l-26.291,3.226a5.35,5.35,0,0,0-4.668,4.671l-5.755,47.14a5.343,5.343,0,0,0,1.65,4.551l-34.607,32.538a5.357,5.357,0,0,0,6.573,8.405c1.757-1.124,3.716-2.356,5.835-3.654,1.891-1.178,4.037-2.516,6.479-4.042q3.622-2.269,7.753-4.845a26.546,26.546,0,0,1,2.495-1.325l-7.418,61.635a5.359,5.359,0,0,0,1.636,4.524l-35.037,32.9a5.356,5.356,0,0,0,7.1,8.017c6.962-5.755,13.709-11.082,20.053-15.847a.353.353,0,0,0,.081-.067c2.642-2.061,5.406-4.109,8.209-6.117,2.79-1.981,5.513-3.8,8.1-5.421s5.044-3.038,7.3-4.23a28.689,28.689,0,0,1,4.655-2.061l20.469-2.5a5.35,5.35,0,0,0,4.668-4.671l4.118-33.715a5.384,5.384,0,0,0-1.61-4.511l7.78-7.294a12.368,12.368,0,0,1,1.744-.669,16.845,16.845,0,0,1,2.388-.522l9.027-1.111a104.692,104.692,0,0,0,23.769-5.8,80.839,80.839,0,0,0,21.247-11.711,66.237,66.237,0,0,0,16.056-17.922,59.154,59.154,0,0,0,8.1-24.2c1.382-10.895-.228-20.585-4.775-28.763a36.3,36.3,0,0,0-10.355-11.979,45.666,45.666,0,0,0-13.293-6.706,58.447,58.447,0,0,0-14.634-2.6c-1.569-.08-3.166-.12-4.722-.12v0h0c-1.154,0-2.307.027-3.447.067L334.966,166a5.364,5.364,0,0,0-3.689-9.262h0Zm0,10.708Zm-26.962,59.427a20.947,20.947,0,0,1,2.186-.107c4.722,0,6.318,1.82,6.841,2.409,2.052,2.342,2.75,5.849,2.146,10.694-.644,5.166-2.428,8.954-5.473,11.591-3.259,2.824-7.391,4.51-12.636,5.153l-15.4,1.887,3.5-29.312,18.833-2.3h0Zm-33.977,88.351Z" transform="translate(64.582 53.061)" fill="#d3882d"/>
  <path id="Path_45" data-name="Path 45" d="M435.084,151.607l-90.314,84.844,6.143-50.473,30.731-3.761c1.677-.4,3.595-.924,5.741-1.553s4.413-1.405,6.787-2.329a76.123,76.123,0,0,0,7.27-3.279,62.635,62.635,0,0,0,7.19-4.31c2.5-1.834,5.017-3.667,7.538-5.5s4.95-3.587,7.27-5.273,4.467-3.226,6.452-4.671,3.7-2.677,5.178-3.721m-11.576,26.3h.564a56.394,56.394,0,0,1,9.269.8,49.806,49.806,0,0,1,8.92,2.382,32.993,32.993,0,0,1,8.062,4.336q13.883,10.038,11.174,31.748-1.871,15.539-9.417,26.354T430.939,262.15l15.224,35.429v-.094l9.323,21.629-41.032,5.033-19.812-48.385-17.867,2.2-2.294,18.578a2.989,2.989,0,0,0,.7,1.164,1.751,1.751,0,0,0,1.355.442,5.536,5.536,0,0,0,.644-.04,11.907,11.907,0,0,0,3.166-1.031,51.957,51.957,0,0,0,5.07-2.73c-.2.147-.8.683-1.824,1.633-1.194,1.111-2.737,2.57-4.641,4.4s-4.091,3.882-6.559,6.17-4.99,4.631-7.565,6.987q-8.934,8.452-20.362,19.193l-11.482,1.405,8.437-69.947a6.353,6.353,0,0,0-1.1-2.1,2.869,2.869,0,0,0-2.482-.977,8.59,8.59,0,0,0-.966.067,13.273,13.273,0,0,0-2.8.736,24.554,24.554,0,0,0-3.756,1.847q-4.185,2.51-7.82,4.832c-2.428,1.553-4.574,2.918-6.425,4.069-2.092,1.379-4.011,2.717-5.781,3.989l33.507-31.453V245.1l71.186-66.9q4.165-.321,8.571-.321M380.41,248.765l21.3-2.61q9.517-1.164,15.171-6.679t6.868-15.017q1.066-9.075-3.152-13.438-3.28-3.534-9.98-3.534a31.91,31.91,0,0,0-3.783.241l-21.8,2.664-4.655,38.36m5.1,45.52s-.04.027-.067.04a.124.124,0,0,1,.067-.04m-13.078,20-1.61,15.312a82.564,82.564,0,0,0-14.782,6.987A200.356,200.356,0,0,0,339,347.8a214.128,214.128,0,0,0-20.335,17.159l53.722-50.673m-53.722,50.673-1.274,1.2c.429-.4.859-.8,1.274-1.2M435.084,146.213a5.4,5.4,0,0,0-3.112.99c-1.475,1.044-3.219,2.3-5.218,3.748s-4.131,2.985-6.452,4.671-4.748,3.44-7.284,5.273-5.017,3.654-7.512,5.474a57.111,57.111,0,0,1-6.519,3.908,70.326,70.326,0,0,1-6.76,3.052c-2.227.857-4.36,1.593-6.358,2.168-1.918.562-3.662,1.031-5.2,1.405l-30.422,3.721a5.35,5.35,0,0,0-4.668,4.671l-6.143,50.473a5.342,5.342,0,0,0,1.61,4.5l-.979.924a5.087,5.087,0,0,0-.617.7l-32.864,30.851a5.359,5.359,0,0,0,6.828,8.231c1.663-1.2,3.528-2.489,5.553-3.828,1.784-1.111,3.877-2.436,6.412-4.069,2.374-1.512,4.963-3.119,7.686-4.752a21.782,21.782,0,0,1,2.6-1.325l-8.021,66.467a5.369,5.369,0,0,0,5.325,6,3.688,3.688,0,0,0,.657-.04l4.923-.6-23.568,22.232c-.429.4-.858.8-1.288,1.218a5.36,5.36,0,0,0,7.378,7.776l1.274-1.2h0a212.845,212.845,0,0,1,19.8-16.717A191.5,191.5,0,0,1,358.68,341.2a77.865,77.865,0,0,1,13.816-6.545,5.36,5.36,0,0,0,3.622-4.524l1.61-15.312a5.375,5.375,0,0,0-1.637-4.444c2.468-2.289,4.681-4.363,6.573-6.184,1.8-1.727,3.34-3.186,4.588-4.337.979-.91,1.328-1.218,1.435-1.312a5.364,5.364,0,0,0-3.206-9.637,3.684,3.684,0,0,0-.657.04,5.334,5.334,0,0,0-2.254.816c-.711.415-1.368.8-1.972,1.138l1.006-8.164,9.644-1.178,18.256,44.6a5.359,5.359,0,0,0,4.963,3.333,5.418,5.418,0,0,0,.657-.04l41.032-5.033a5.346,5.346,0,0,0,4.266-7.428l-9.336-21.629a4.044,4.044,0,0,0-.241-.482L437.7,264.291a67.469,67.469,0,0,0,18.779-17.734c5.5-7.9,8.987-17.587,10.328-28.777,2.052-16.463-2.441-28.83-13.36-36.727a38.952,38.952,0,0,0-9.336-5.019,55.818,55.818,0,0,0-9.886-2.65,62.613,62.613,0,0,0-10.141-.883h-.59c-.979,0-1.958,0-2.937.04l18.189-17.092a5.35,5.35,0,0,0-3.689-9.249h0Zm0,10.708ZM389.839,215.21l17.626-2.155a26.491,26.491,0,0,1,3.125-.2c2.9,0,4.923.616,6.036,1.807a.581.581,0,0,1,.081.094c1.623,1.673,2.186,4.738,1.677,9.088-.657,5.1-2.388,8.981-5.3,11.818-2.924,2.864-6.881,4.564-12.072,5.193l-14.5,1.78,3.326-27.411h0ZM372.388,319.636Z" transform="translate(104.076 49.494)" fill="#d3882d"/>
  <path id="Path_46" data-name="Path 46" d="M516.809,147.95c-.523.656-1.65,2.262-3.394,4.792s-3.716,5.434-5.9,8.673-4.373,6.572-6.546,9.945-3.89,6.237-5.124,8.579a48.992,48.992,0,0,0-4.279,10.574,79.166,79.166,0,0,0-1.8,8.071l-5.956,48.76-58.859,55.345c.349-.442,1.167-1.579,2.468-3.44s2.75-3.962,4.346-6.344,3.193-4.818,4.789-7.294,2.844-4.578,3.756-6.277a33.78,33.78,0,0,0,3.018-7.428c.657-2.463,1.127-4.417,1.422-5.836l6.854-56.83,65.2-61.287m-26.841,17.507L428.775,222.97q.684-.984,3.353-4.778,2.676-3.815,5.969-8.633t6.546-9.945c2.173-3.413,3.9-6.291,5.218-8.646a59.971,59.971,0,0,0,3.206-7.549,54,54,0,0,0,1.9-6.8,57.5,57.5,0,0,0,1.261-6.719h.094l.067-.321,33.574-4.109m11.227,73.4h0m0,0q-3.5,4.8-6.626,9.262c-1.247,1.74-2.28,3.226-3.085,4.457s-1.61,2.449-2.388,3.667-1.543,2.449-2.294,3.667-1.368,2.289-1.851,3.212a35.741,35.741,0,0,0-2.482,5.729,50.7,50.7,0,0,0-1.449,5.193,32.178,32.178,0,0,0-.872,5.073l-.2.027-4,33.9-37.5,4.591,2.723-22.405,41.609-39.2v.094L501.2,238.871m15.627-96.261a5.315,5.315,0,0,0-3.675,1.459L494.059,162a5.355,5.355,0,0,0-4.735-1.847l-33.575,4.109a5.349,5.349,0,0,0-4.212,3.065,5.1,5.1,0,0,0-.617,1.914,51.905,51.905,0,0,1-1.154,6.09c-.014.08-.04.147-.054.228A50.051,50.051,0,0,1,448,181.679a55.7,55.7,0,0,1-2.871,6.786c-1.247,2.235-2.924,5.019-5,8.272-2.146,3.373-4.319,6.665-6.452,9.811-2.159,3.159-4.145,6.05-5.929,8.579-1.8,2.556-2.911,4.163-3.367,4.818a5.367,5.367,0,0,0,8.1,6.947l13.105-12.314-6.117,50.647c-.268,1.3-.711,3.092-1.3,5.327a28.924,28.924,0,0,1-2.549,6.251c-.858,1.593-2.066,3.587-3.568,5.956-1.556,2.423-3.139,4.845-4.722,7.2s-3.031,4.47-4.279,6.251c-1.69,2.409-2.173,3.052-2.307,3.212a5.356,5.356,0,0,0,7.9,7.188l6.506-6.117-2.012,16.53a5.35,5.35,0,0,0,5.325,6,3.69,3.69,0,0,0,.657-.04l37.5-4.591A5.364,5.364,0,0,0,481.3,313.7l3.836-32.538a5.147,5.147,0,0,0,.376-1.566,26.354,26.354,0,0,1,.724-4.229c.013-.053.027-.12.04-.174a47.034,47.034,0,0,1,1.3-4.644,31.122,31.122,0,0,1,2.119-4.885c.443-.857,1.006-1.834,1.69-2.945.724-1.191,1.475-2.383,2.24-3.574s1.543-2.4,2.334-3.6c.778-1.164,1.771-2.61,2.978-4.3,2.012-2.864,4.2-5.916,6.519-9.115a5.352,5.352,0,0,0-4.239-8.62h-.08a5.221,5.221,0,0,0-2.643.736,6.667,6.667,0,0,0-.631.442h0c-.107.094-.228.187-.335.281l-7.659,7.187,5.231-42.844c.268-1.753.832-4.256,1.663-7.428a43.5,43.5,0,0,1,3.823-9.409c1.167-2.208,2.817-4.966,4.909-8.218,2.146-3.346,4.333-6.665,6.479-9.851,2.2-3.266,4.172-6.17,5.875-8.633,2.2-3.186,2.951-4.2,3.206-4.524a5.352,5.352,0,0,0-4.239-8.646h0Zm0,10.708ZM501.2,244.225Z" transform="translate(143.234 48.279)" fill="#d3882d"/>
  <path id="Path_47" data-name="Path 47" d="M688.757,124.257a201.862,201.862,0,0,0-18.632,21.08q-5.09,6.384-8.37,11.363T655.4,167.368a128.488,128.488,0,0,0-5.661,11.926,73.961,73.961,0,0,0-3.97,12.662l-13.2,109.016-36.821,4.511q-7.565-15.379-13.454-27.492-3.581-7.308-5.714-11.578-2.112-4.256-3.85-7.83t-2.924-5.9c-.791-1.566-1.194-2.369-1.194-2.436-1.073-2.249-2.4-3.359-3.97-3.359a2.389,2.389,0,0,0-.429.027,7.559,7.559,0,0,0-4.091,2.4,41.613,41.613,0,0,0-6.8,7.549,19.044,19.044,0,0,0-2.7,6.05L544.68,311.76l-29.457,3.614a100.24,100.24,0,0,0-19.758,5.006,165.939,165.939,0,0,0-16.526,7.04,119.51,119.51,0,0,0-11.884,6.679q-4.648,3.052-5.754,3.881l127.47-119.831,13.588,27.866,5.513-45.922,80.858-75.836m-38.752,28.509L592.366,206.96a67.085,67.085,0,0,0,6.331-9.677,136.706,136.706,0,0,0,6.009-12.327q2.8-6.5,4.883-12.929a100.005,100.005,0,0,0,3.085-11.417l.389-3.333,36.914-4.524M562.1,163.514l24,49.268L561.635,235.87l-6.251-12.755L552.89,244.1l-41.811,39.23L525.1,168.051l37.008-4.537M688.717,118.89a5.338,5.338,0,0,0-3.675,1.459l-30.932,29a5.375,5.375,0,0,0-4.8-1.914l-36.915,4.524a5.365,5.365,0,0,0-4.681,4.7l-.362,3.119a95.375,95.375,0,0,1-2.87,10.587c-1.355,4.122-2.937,8.325-4.722,12.488a131.156,131.156,0,0,1-5.768,11.832,62.518,62.518,0,0,1-5.821,8.914,4.14,4.14,0,0,0-.349.5l-20.9-42.9a5.379,5.379,0,0,0-5.486-2.971l-37.008,4.537a5.35,5.35,0,0,0-4.668,4.671L505.74,282.716a5.34,5.34,0,0,0,1.663,4.564L457.6,334.1a5.354,5.354,0,0,0,6.921,8.151c.349-.268,1.516-1.1,5.446-3.667a113.182,113.182,0,0,1,11.348-6.358,156.662,156.662,0,0,1,15.976-6.813,94.916,94.916,0,0,1,18.632-4.725l29.376-3.6a5.35,5.35,0,0,0,4.668-4.671l5.915-48.559a13.982,13.982,0,0,1,1.918-4.1,36.245,36.245,0,0,1,5.915-6.5.808.808,0,0,0,.107-.107.859.859,0,0,1,.121-.107c.241.509.577,1.165,1.033,2.075.792,1.566,1.757,3.52,2.884,5.836q1.75,3.594,3.877,7.87,2.112,4.256,5.7,11.551c3.97,8.178,8.5,17.44,13.454,27.492a5.369,5.369,0,0,0,5.473,2.958l36.821-4.511a5.337,5.337,0,0,0,4.668-4.671l13.159-108.762a69.513,69.513,0,0,1,3.635-11.524,117.943,117.943,0,0,1,5.419-11.417c1.972-3.641,4.037-7.094,6.13-10.279s4.8-6.866,8.075-10.975c.027-.027.04-.054.067-.08a196.766,196.766,0,0,1,18.135-20.518,5.36,5.36,0,0,0-3.769-9.168h0Zm0,10.708Zm-96.364,82.7a5.315,5.315,0,0,0,3.675-1.459l5.768-5.434-2.629,21.884-5.607-11.5a5.358,5.358,0,0,0-2.16-2.3,4.941,4.941,0,0,0,.013-1.258,5.408,5.408,0,0,0,.926.08h0Z" transform="translate(155.631 40.251)" fill="#d3882d"/>
  <path id="Path_48" data-name="Path 48" d="M722.879,107.454q-8.732,10.018-14.621,18.1c-2.4,3.212-4.185,5.782-5.379,7.723a32.642,32.642,0,0,0-2.763,5.461,11.156,11.156,0,0,0-.9,4.39,2.136,2.136,0,0,0,1.918,2.2l61.059-7.482-3.5,29.071-44.372,5.434-5.54,45.721-55.466,52.146a109.05,109.05,0,0,0,7.083-9.623c1.3-1.887,2.321-3.493,3.085-4.859s1.5-2.771,2.213-4.256,1.341-2.958,1.891-4.457a22.159,22.159,0,0,0,1.154-4.363l7.954-65.7-31.911,3.908,78.068-73.4m39.315,30.383h0m-91.7,11.23L609.2,206.686c.523-.656,1.663-2.262,3.448-4.792s3.769-5.434,5.956-8.687,4.373-6.572,6.546-9.945,3.877-6.277,5.111-8.686a50.364,50.364,0,0,0,2.508-5.528c.7-1.847,1.3-3.587,1.8-5.247s.885-3.172,1.181-4.564a29.686,29.686,0,0,0,.563-3.493l.389-2.53,33.776-4.136m58.4,59.173q-3.984,5.662-7.713,10.989c-1.409,2.1-2.589,3.841-3.541,5.26s-1.9,2.851-2.857,4.323-1.851,2.9-2.709,4.31-1.583,2.663-2.173,3.8a44.291,44.291,0,0,0-3.635,8.941q-1.207,4.377-1.677,7.013l-4.708,38.668-37.6,4.6,3.474-28.469,63.138-59.44m-6.023-106.139a5.314,5.314,0,0,0-3.675,1.459l-44.654,41.987a5.366,5.366,0,0,0-4.695-1.794L636.052,147.9a5.373,5.373,0,0,0-4.654,4.511l-.389,2.53-.04.321a28.848,28.848,0,0,1-.469,2.878c-.268,1.245-.617,2.637-1.073,4.136-.456,1.526-1.02,3.159-1.663,4.872a48.706,48.706,0,0,1-2.24,4.952c-1.18,2.3-2.817,5.073-4.869,8.272-2.133,3.319-4.319,6.639-6.479,9.851-2.187,3.239-4.172,6.143-5.9,8.606-2.146,3.052-2.964,4.176-3.273,4.564a5.356,5.356,0,0,0,7.9,7.187l27.874-26.207a5.366,5.366,0,0,0,4.695,1.793l25.11-3.078L663.457,241.9a18.012,18.012,0,0,1-.885,3.266c-.483,1.325-1.06,2.664-1.69,3.975-.657,1.365-1.355,2.69-2.066,3.948-.684,1.2-1.636,2.7-2.844,4.444-.027.027-.04.067-.067.094a107.5,107.5,0,0,1-6.747,9.155,5.359,5.359,0,0,0,7.834,7.281l2.911-2.744-2.951,24.146a5.351,5.351,0,0,0,5.325,6,3.683,3.683,0,0,0,.657-.04l37.6-4.6a5.35,5.35,0,0,0,4.668-4.671l4.695-38.507c.3-1.579.8-3.734,1.543-6.4a39.049,39.049,0,0,1,3.206-7.87c.563-1.071,1.22-2.235,2.012-3.507.818-1.338,1.717-2.757,2.656-4.216s1.878-2.878,2.777-4.216c.953-1.405,2.133-3.159,3.528-5.233q3.7-5.3,7.673-10.935a5.363,5.363,0,0,0-8.075-6.973l-10.583,9.958,4.494-37.155,40.2-4.925a5.35,5.35,0,0,0,4.668-4.671l3.474-28.857a5.955,5.955,0,0,0,.067-.843,5.358,5.358,0,0,0-5.325-5.354h-.174a4.594,4.594,0,0,0-.6.054l-55.788,6.839a32.6,32.6,0,0,1,1.784-3.293c1.087-1.78,2.817-4.243,5.111-7.321,3.85-5.287,8.665-11.256,14.353-17.788a5.363,5.363,0,0,0-4.051-8.874h0Zm0,10.708Zm6.023,100.785Z" transform="translate(206.136 34.555)" fill="#d3882d"/>
  <g id="Group_10" data-name="Group 10" transform="translate(18.588 346.858)" clip-path="url(#clip-path)">
    <path id="Path_49" data-name="Path 49" d="M197.663,156.079,282.317,76.99l-13.025,41.666-20.912,2.556a32.025,32.025,0,0,0-6.063,2.583c-2.374,1.245-4.909,2.717-7.632,4.417s-5.513,3.56-8.384,5.595-5.674,4.122-8.4,6.251q-9.678,7.248-20.255,16.008Z" transform="translate(48.88 -320.788)" fill="#e7f2f2"/>
    <path id="Path_50" data-name="Path 50" d="M127.406,78.706c3.246-.187,6.506-.268,9.738-.549,3.179-.281,6.345-.75,9.51-1.138.107.348.228.7.335,1.044A22.046,22.046,0,0,1,143.7,79.9c-4.628,1.633-9.282,3.212-13.95,4.685-2.052.656-2.361,2.155-1.677,3.667.443.977,1.878,2.315,2.656,2.2,5.258-.843,10.449-2.034,15.667-3.119,2.75-.576,5.473-1.5,8.236-1.646,3.809-.214,5.513,2.382,3.353,5.528-2.575,3.748-1.878,7.321-.791,11.069,1.019,3.533,2.254,3.975,5.231,2.516.483-2.837.416-5.568,1.422-7.817,2.213-4.966,6.4-8.071,11.321-10.266a52.4,52.4,0,0,0,4.574-2.69,62.27,62.27,0,0,1,6.4-3.533,24.4,24.4,0,0,1,6.345-1.74c9.349-1.164,18.752-3.2,28.075-2.945,12.6.335,25.11,1.272,37.612-1.111a5.828,5.828,0,0,1,3.7,1.057c8.692,5.461,17.3,11.029,25.956,16.53,1.6,1,2.186,2.262,1.274,3.948-.389.723-.765,1.459-1.14,2.2l32.81-30.838c-1.247-.361-2.481-.736-3.7-1.178-5.7-2.034-11.187-4.7-16.955-6.532-9.457-3.011-19.262-5.033-28.531-8.513-6.854-2.57-13.333-4.832-20.831-3.815-10.489,1.419-21.167,1.633-31.549,3.52-10.8,1.954-21.314,5.421-32.018,7.924a20.744,20.744,0,0,1-7.7-.174c-3.595-.549-7.1-1.994-10.691-2.2-7.525-.415-14.433-2.048-20.147-7.295a31.914,31.914,0,0,0-4.131-2.864c-1.9-1.272-4.038-1.994-5.526.268-1.462,2.222.362,3.533,2,4.859,3.072,2.5,6.05,5.126,8.974,7.817a2.551,2.551,0,0,1,.456,2.115c-.067.321-1.18.669-1.757.576-5.473-.83-10.932-1.753-16.4-2.663-1.958-.335-3.675-.161-4.145,2.155-.416,1.994-.2,3.841,2.254,4.43,1.623.388,3.259.709,4.9,1.031q5.835,1.144,11.7,2.262a3.487,3.487,0,0,1-2.119.9q-8.934.823-17.88,1.62c-1.851.174-3.635.294-3.367,2.985.241,2.4,1.006,4.056,3.783,3.895Z" transform="translate(23.592 -331.525)" fill="#e7f2f2"/>
    <path id="Path_51" data-name="Path 51" d="M498.024,57.815c-.577,2.878-1.476,5.675-2.227,8.512l-.872-.12c0-.964,0-1.914.027-2.878.094-4.47.2-8.941.3-13.425.054-2.423-.8-4.122-3.675-3.948.429-2.088.536-3.8-2.012-4.189-2.227-.348-3.38.709-3.836,2.73-.63,2.824-1.207,5.662-1.811,8.5a16.074,16.074,0,0,1-.054-4.939c.121-1.74.121-3.574-2.173-3.828-2.012-.228-3.541.642-3.8,2.851-.4,3.413-.845,6.826-1.006,10.252-.228,4.832-.832,9.476-3.984,13.706-1.449-.83-2.871-1.258-3.729-2.2-3.219-3.52-7.19-3.533-11.321-2.637-.912.2-1.65,1.2-2.482,1.847.711.709,1.3,1.74,2.16,2.088,4.306,1.713,8.021,4.082,10.235,8.285,1.7,3.212,3.474,6.411,4.869,9.757.8,1.927,1.65,4.31,1.194,6.184-1.61,6.478-3.635,12.849-5.768,19.18-3.568,10.641-10.865,19.046-17.33,27.92-2.361,3.239-4.655,3.426-8.263,1.526-3.689-1.954-7.176-4.337-10.972-6.05-4.842-2.182-9.913-3.881-15.573-6.063,1.328-.937,2.16-1.432,2.884-2.061,2.213-1.954,4.8-3.667,6.425-6.036,1.127-1.646,1.878-2.369,3.836-2.1,2.455.335,4-.509,3.944-3.426-.067-3.547.134-7.107.335-10.641.054-.937.322-2.4.926-2.65,2.361-1.031,2.71-2.784,2.844-5.059a37.086,37.086,0,0,1,1.368-5.983c2.535,0,4.936-.094,7.324,0,2.871.107,5.111-.7,5.258-3.935a70.564,70.564,0,0,0-.309-7.709c-.443-6.612-3.675-11.5-9.644-14.321-2.361-1.111-4.319-2.316-5.594-4.671a4.454,4.454,0,0,0-2.549-1.927c-2.924-.776-5.956-1.178-8.88-1.941a19.074,19.074,0,0,1-3.608-1.834c-1.878-.977-3.716-2.69-5.634-2.8a56.124,56.124,0,0,0-22.75,2.9c-7.726,2.757-13.092,7.629-17.384,14.08-1.221,1.834-1.583,4.216-2.334,6.358-.443,1.272-.9,2.543-1.341,3.815a25.357,25.357,0,0,1-4.011-1.834c-3.26-2.222-6.13-5.207-9.644-6.8a39.88,39.88,0,0,0-3.877-1.486l-12.18,10.694-41.086,38.628c-2.911,3.908-5.835,7.817-8.652,11.805-4.413,6.224-8.706,12.555-12.636,19.086-4.534,7.535-7.927,15.633-14.017,22.392-3.42,3.8-5.365,8.847-9.859,12.14-2.616,1.914-4.038,5.407-6.211,8a22.707,22.707,0,0,1-4.306,3.574c-1.757,1.258-3.716,2.275-5.446,3.574a83.648,83.648,0,0,0-9.215,7.388c-3.89,3.895-7.887,7.883-10.865,12.448-5.406,8.3-6.774,17.908-6.975,27.625-.161,7.522-1.757,14.669-6.962,20.144-13.508,14.241-20.872,32.056-29.148,49.282-3.85,8.017-9.537,14.281-15.949,19.876-5.392,4.711-11.75,8.339-17.773,12.314-8.705,5.742-17.156,11.671-22.361,21.161a106.857,106.857,0,0,1-7.713,11.444c-3.9,5.327-8.142,10.413-11.925,15.82-6.613,9.449-13.508,18.618-22.428,26.086-5.231,4.377-15.614,4.792-21.046.656-1.918-1.459-3.9-2.034-5.607-.147a10.175,10.175,0,0,0-2.71,4.966,44.5,44.5,0,0,0-.188,10c1.529,17.2,3.42,34.331,2.938,51.7-.04,1.539-.013,3.065.08,4.591l37.4-35.763a2.738,2.738,0,0,1,.161-2.182c1.556-2.463,3.219-4.872,4.963-7.2,2.562-3.413,5.647-6.5,7.767-10.159A78.443,78.443,0,0,1,117.008,421.1c10.3-9.209,20.992-18.015,30.905-27.625A184.246,184.246,0,0,1,176.417,371a63.7,63.7,0,0,0,10.825-8.419c6.251-6.317,11.724-13.411,19.41-18.216a22.351,22.351,0,0,0,4.239-3.721c6.841-7.228,13.682-14.455,20.416-21.777,5.3-5.769,10.65-11.524,15.627-17.574,8.451-10.266,16.633-20.773,27.23-29.017a3.865,3.865,0,0,1,2.522-.83c4.453.5,8.907,1.164,13.347,1.794,6.117.857,12.22,2.262,18.363,2.5,13.494.549,27.029.5,40.536.776a69.087,69.087,0,0,1,6.989.843c.2.308.389.6.59.91a18.58,18.58,0,0,0-2.884,2.824c-3.81,5.755-7.981,11.337-11.133,17.44-3.286,6.384-5.392,13.371-8.343,19.943-4.024,8.968-8.142,17.908-12.622,26.648-3.93,7.669-8.37,15.071-12.663,22.553-1.006,1.753-2.052,3.681-4.775,3.2a2.406,2.406,0,0,0-1.945,1.151c-2.16,4.966-4.359,9.931-6.17,15.031-1.127,3.172-2.012,6.358-4.976,8.379-1.771,1.2-1.891,2.717-.644,4.283.912,1.124,1.878,2.5,3.125,3a147.858,147.858,0,0,0,15.278,5.407c9.577,2.6,19.41,4.323,28.88,7.254,9.685,3,19.343,4.818,29.349,2.8a57.982,57.982,0,0,0,12.072-4.149,6.038,6.038,0,0,0,3.662-7.214c-.8-3.815-2.938-6.023-6.68-6.451-3.219-.361-6.479-.348-9.7-.75a13.678,13.678,0,0,1-3.836-1.5c-1.811-.83-3.581-1.78-5.392-2.623-.845-.388-1.958-.428-2.616-1-4.6-4.029-9.108-8.165-13.655-12.26l1.127-.4c-.148-1.245-.215-2.5-.483-3.721-.443-1.981-1.784-4.082-1.435-5.876a64.625,64.625,0,0,1,12.9-27.5c5.7-7.228,12.059-13.947,17.693-21.228,9.752-12.595,19.369-25.31,28.638-38.253a98.892,98.892,0,0,0,9.349-16.65c2.629-5.809.322-13.92-4.239-16.637a75.384,75.384,0,0,0-9.323-4.457c-3.957-1.66-8.048-3.025-12.019-4.644-17.921-7.335-35.734-14.937-53.762-21.977-5.768-2.249-12.1-3.052-19.155-4.751.939-.656,1.489-.977,1.972-1.392q12.575-10.621,25.124-21.281c2.079-1.753,4.507-3.252,6.1-5.381a46.979,46.979,0,0,1,15.251-12.836c8.786-4.805,17.2-9.971,23.85-17.654,2.83-3.266,4.976-3.533,8.8-1.74a22.239,22.239,0,0,1,2.924,1.834c2.468,1.633,4.319,4.845,8.1,3.038.268-.134.791.187,1.18.361,17.572,7.79,36.593,9.583,55.184,13.1a7.1,7.1,0,0,0,8.008-3.654q5.875-10.721,11.442-21.589c6.586-12.929,9.483-26.916,12.113-41.05.9-4.845,3.058-9.463,4.789-14.134,1.583-4.27,3.917-8.339,4.936-12.729,1.7-7.361,2.616-14.91,3.863-22.392l-.537-4.377c-3.85-.7-4.48-.161-5.231,3.641Z" transform="translate(-2.187 -332.731)" fill="#e7f2f2"/>
    <path id="Path_52" data-name="Path 52" d="M51.25,392.879a22.344,22.344,0,0,0,9.121,13.13l5-.616c2.79-1.82,3.689-4.618,3.984-7.709A40.3,40.3,0,0,1,74.12,381.89a15.344,15.344,0,0,0,1.167-4.751c.282-1.633-.013-3.507.671-4.912.993-2.048,2.052-4.069,3.125-6.077L51.25,392.865Z" transform="translate(-1.096 -222.923)" fill="#e7f2f2"/>
    <path id="Path_53" data-name="Path 53" d="M314.107,36.383,249.99,96.64l4.091-33.434,18.806-2.3q1.791-.361,4.145-1.044c1.569-.455,3.219-1.017,4.95-1.7s3.514-1.486,5.352-2.423a37.7,37.7,0,0,0,5.352-3.333q3.964-2.811,7.793-5.648t6.854-5.18q3.561-2.69,6.774-5.207Z" transform="translate(66.748 -334.535)" fill="#e7f2f2"/>
    <path id="Path_54" data-name="Path 54" d="M78.162,378.01,5.54,446.445s49.027-44.477,71.629-46.056" transform="translate(-16.7 -218.909)" fill="#e7f2f2"/>
    <path id="Path_55" data-name="Path 55" d="M69.79,377.63l65.888-59.28S102.855,347.475,83.915,350.3" transform="translate(5.233 -239.101)" fill="#e7f2f2"/>
  </g>
</svg>
