<svg id="rugby_ball_icon" data-name="rugby ball icon" xmlns="http://www.w3.org/2000/svg" xmlns:xlink="http://www.w3.org/1999/xlink" width="61.173" height="52.362" viewBox="0 0 61.173 52.362">
  <defs>
    <clipPath id="clip-path">
      <rect id="Rectangle_5" data-name="Rectangle 5" width="61.173" height="52.362" fill="none"/>
    </clipPath>
  </defs>
  <g id="Group_2" data-name="Group 2" clip-path="url(#clip-path)">
    <path id="Path_2" data-name="Path 2" d="M61.169,5.174A3.6,3.6,0,0,0,58.6,1.921C25.853-6.539-.381,13.728,0,47.188A3.6,3.6,0,0,0,2.575,50.44C35.32,58.9,61.554,38.634,61.169,5.174ZM5.041,36.069A26.782,26.782,0,0,1,19.229,12.3,57.737,57.737,0,0,0,7.53,29.477C6.564,31.59,5.876,33.8,5.041,36.069M42.108,25.911a.445.445,0,0,1-.309,0q-3.1-.927-6.191-1.864a.61.61,0,0,0-.314-.032l6.071,2.518a5.658,5.658,0,0,1-.5.4.379.379,0,0,1-.264-.007q-3.343-.969-6.683-1.946a.9.9,0,0,0-.355-.046l6.509,2.642a4.157,4.157,0,0,1-.481.37.455.455,0,0,1-.313.015q-3.663-1.034-7.323-2.078a.793.793,0,0,0-.312-.041l6.912,2.907a6.6,6.6,0,0,1-.558.413c-.062.037-.182,0-.269-.025Q34.059,28.073,30.393,27c-.1-.028-.194-.053-.292-.08l-.021.059,7,2.873a7.442,7.442,0,0,1-.633.461.465.465,0,0,1-.316-.007q-3.837-1.089-7.672-2.187a1.058,1.058,0,0,0-.364-.053l7.377,2.97c-.276.2-.512.391-.767.55a.429.429,0,0,1-.29-.015q-3.867-1.081-7.731-2.169c-.115-.032-.232-.061-.348-.092l-.025.041,7.381,2.984c-.3.226-.564.434-.841.622-.054.036-.165.007-.245-.013q-4.011-.993-8.021-1.991a.423.423,0,0,0-.263,0l7.335,2.925c-.294.257-.56.5-.843.728a.367.367,0,0,1-.263.009q-4.047-.958-8.092-1.922a.5.5,0,0,0-.255-.011l7.5,3c-.252.272-.482.536-.735.777-.051.049-.2.027-.289,0q-4.079-.935-8.155-1.878a.459.459,0,0,0-.254,0l7.683,3.038c-.26.32-.494.626-.754.911-.051.056-.206.049-.3.029q-2.73-.576-5.457-1.164l-2.933-.625a.465.465,0,0,0-.26,0l7.876,3.153c-.245.339-.469.664-.712.973-.035.045-.172.036-.254.018q-2.5-.571-5.006-1.149l-3.557-.82c-.081-.019-.164-.033-.3-.061l.268.3a22.026,22.026,0,0,0-3.866,5.98c-.043-.134-.069-.192-.081-.252-.122-.6-.235-1.2-.365-1.8a.493.493,0,0,1,.1-.426,32.607,32.607,0,0,1,3.374-4.037.463.463,0,0,0,.137-.457q-.785-4.428-1.552-8.858c-.015-.085-.021-.212.028-.261.608-.612,1.227-1.214,1.89-1.866.251,3.541.5,7.01.747,10.555.338-.4.631-.734.911-1.08a.324.324,0,0,0,.015-.221q-.514-3.281-1.034-6.559c-.141-.893-.285-1.786-.422-2.68a.272.272,0,0,1,.038-.21c.565-.507,1.138-1.005,1.768-1.556.237,3.369.469,6.659.706,10.025.34-.363.642-.674.925-1,.046-.053.019-.181,0-.271q-.353-2.115-.712-4.23c-.246-1.461-.488-2.922-.74-4.383a.347.347,0,0,1,.147-.391c.538-.4,1.065-.82,1.635-1.262.223,3.2.441,6.336.664,9.538.343-.327.657-.615.953-.92.046-.048.02-.179,0-.268q-.489-2.814-.983-5.626c-.154-.874-.313-1.747-.459-2.622a.315.315,0,0,1,.075-.261c.58-.408,1.17-.8,1.817-1.239l.56,9.111c.347-.3.66-.551.953-.827.054-.051.048-.19.032-.282q-.45-2.623-.911-5.245c-.153-.874-.306-1.748-.468-2.62a.244.244,0,0,1,.144-.307c.538-.3,1.068-.6,1.652-.937.194,2.878.384,5.7.578,8.56.349-.27.668-.507.971-.76a.31.31,0,0,0,.046-.249q-.441-2.376-.894-4.749c-.166-.88-.328-1.762-.5-2.641a.237.237,0,0,1,.156-.318c.485-.208.964-.427,1.484-.659.2,2.672.388,5.3.583,7.975.327-.229.629-.427.912-.65.054-.042.056-.186.039-.274q-.421-2.209-.855-4.415c-.174-.887-.354-1.773-.537-2.688l1.522-.578c.239,2.463.475,4.882.714,7.344l1.024-.6-1.583-6.8,1.775-.608c.207,2.31.411,4.6.619,6.926.311-.177.6-.329.872-.5a.273.273,0,0,0,.063-.236q-.66-2.977-1.34-5.951c-.053-.231-.007-.318.221-.377.393-.1.778-.236,1.2-.367l.725,6.462c.329-.181.636-.343.932-.525.036-.022.021-.157,0-.232q-.727-2.8-1.461-5.6c-.011-.041-.017-.083-.031-.154l1.416-.436.846,6.021c.321-.183.61-.338.885-.515a.265.265,0,0,0,.047-.235c-.231-.794-.473-1.585-.713-2.376q-.42-1.385-.842-2.77c-.014-.048-.02-.1-.036-.176l1.463-.436c.27,1.853.536,3.689.811,5.581.281-.164.536-.3.772-.461.043-.03.037-.17.015-.248-.245-.853-.5-1.7-.747-2.555-.228-.776-.454-1.552-.692-2.361l1.506-.45c.2,1.751.4,3.48.6,5.251.3-.172.569-.32.825-.491.047-.032.056-.168.035-.243-.26-.938-.529-1.874-.8-2.81-.164-.578-.326-1.157-.495-1.756l1.532-.47c.162,1.6.323,3.191.489,4.832.3-.186.566-.341.816-.519.045-.032.043-.17.021-.248-.2-.706-.4-1.409-.6-2.112l-.572-1.994,1.688-.553c.059,1.494.117,2.958.177,4.471a8.322,8.322,0,0,0,.7-.449c.059-.046.066-.2.048-.293-.23-1.167-.469-2.331-.706-3.5-.019-.091-.037-.183-.058-.288l1.41-.522c.039,1.368.077,2.7.117,4.093.261-.18.485-.317.686-.483.048-.039.039-.172.023-.256-.2-1.058-.407-2.115-.624-3.17-.04-.2-.008-.285.192-.363.393-.153.77-.346,1.185-.537.014,1.253.028,2.479.043,3.767.244-.178.456-.317.645-.483.048-.041.039-.171.024-.255-.175-.949-.348-1.9-.54-2.844a.3.3,0,0,1,.2-.4c.356-.173.7-.369,1.086-.575.015,1.153.03,2.274.045,3.454.237-.19.446-.339.629-.514.049-.047.043-.175.027-.259-.164-.828-.336-1.655-.506-2.482-.019-.093-.037-.185-.057-.286l1.234-.767c.027,1.04.054,2.048.082,3.108.224-.214.42-.384.591-.575a.335.335,0,0,0,.025-.257c-.167-.713-.338-1.425-.522-2.134a.3.3,0,0,1,.154-.378c.34-.218.665-.458,1.042-.72L47.011,15.2c.222-.254.405-.447.566-.658a.367.367,0,0,0,.035-.26c-.111-.61-.226-1.22-.353-1.827a.3.3,0,0,1,.134-.347c.293-.213.571-.446.884-.695,0,.753,0,1.473,0,2.265.167-.222.3-.385.415-.563a.379.379,0,0,0,.01-.243c-.084-.457-.171-.915-.268-1.37a.3.3,0,0,1,.108-.335c.285-.236.557-.488.866-.761-.008.562-.016,1.083-.024,1.661a.86.86,0,0,0,.28-.677,7.9,7.9,0,0,1-.056-.979.517.517,0,0,1,.112-.311c.148-.177.323-.332.531-.539.008.338.015.623.022.954a.939.939,0,0,0,.259-.767c-.089-.491.218-.774.568-1.126-.062.637-.113,1.208-.179,1.778-.009.072-.087.145-.149.2a11.216,11.216,0,0,0-.838.788l.905-.355c-.049.29-.082.544-.141.79-.016.067-.107.126-.177.169-.546.333-1.1.661-1.628,1.027l1.663-.426c-.075.328-.127.619-.216.9-.022.07-.156.121-.248.152-.715.239-1.432.472-2.141.764l2.21-.166c-.109.36-.2.688-.315,1.005-.02.056-.152.091-.237.1-.983.136-1.966.267-2.951.439l2.937.236c-.135.348-.25.678-.395.994-.027.059-.172.092-.262.091-1.174-.015-2.347-.038-3.521-.059a.1.1,0,0,0-.081.048l3.5.782c-.122.248-.222.484-.355.7-.035.057-.176.079-.264.071-1.393-.136-2.785-.28-4.177-.422a.121.121,0,0,0-.109.036l4.082,1.156c-.311.675-.311.676-1,.57l-4.277-.664a.524.524,0,0,0-.261.011l4.628,1.531a4.9,4.9,0,0,1-.407.518c-.051.051-.193.04-.285.02q-2.553-.525-5.105-1.062a.391.391,0,0,0-.241.008L46.048,22.2a6.241,6.241,0,0,1-.5.511c-.056.046-.193.023-.284,0q-2.593-.7-5.184-1.4a.621.621,0,0,0-.312-.021l5.139,2.084a4.8,4.8,0,0,1-.448.428.377.377,0,0,1-.279.02q-2.844-.769-5.686-1.548a.389.389,0,0,0-.256,0l5.445,2.258a5.273,5.273,0,0,1-.473.421c-.057.04-.179.014-.263-.011Q40.026,24.073,37.1,23.2a.465.465,0,0,0-.28-.012l5.7,2.375a2.978,2.978,0,0,1-.418.35m.427,13.727A55.433,55.433,0,0,0,54.418,23.626c1.009-1.988,1.754-4.084,2.644-6.221A25.711,25.711,0,0,1,42.535,39.638" transform="translate(0 0)" fill="#581e16"/>
  </g>
</svg>
