<svg xmlns="http://www.w3.org/2000/svg" xmlns:xlink="http://www.w3.org/1999/xlink" width="47.806" height="38.114" viewBox="0 0 47.806 38.114">
  <defs>
    <clipPath id="clip-path">
      <rect id="Rectangle_17" data-name="Rectangle 17" width="47.806" height="38.114" fill="none"/>
    </clipPath>
  </defs>
  <g id="Group_17" data-name="Group 17" transform="translate(0 0)">
    <g id="Group_16" data-name="Group 16" transform="translate(0 0)" clip-path="url(#clip-path)">
      <path id="Path_67" data-name="Path 67" d="M0,33.188H0C1.564,8,22.188-5.808,46.069,2.341A2.706,2.706,0,0,1,47.8,4.927c-1.56,25.185-22.184,39-46.065,30.847A2.708,2.708,0,0,1,0,33.188" transform="translate(0 0)" fill="#aa572d"/>
      <path id="Path_68" data-name="Path 68" d="M18.618,12.384A43.566,43.566,0,0,0,8.971,24.665C8.136,26.2,7.5,27.83,6.756,29.488a20.231,20.231,0,0,1,11.862-17.1" transform="translate(-2.394 -4.388)" fill="#e7f2f2"/>
      <path id="Path_69" data-name="Path 69" d="M49.627,37.457a41.785,41.785,0,0,0,9.72-11.394c.859-1.44,1.529-2.975,2.308-4.535A19.4,19.4,0,0,1,49.627,37.457" transform="translate(-17.582 -7.627)" fill="#e7f2f2"/>
    </g>
  </g>
</svg>
