<svg id="sprint_icon" data-name="sprint icon" xmlns="http://www.w3.org/2000/svg" xmlns:xlink="http://www.w3.org/1999/xlink" width="83.283" height="63.675" viewBox="0 0 83.283 63.675">
  <defs>
    <clipPath id="clip-path">
      <rect id="Rectangle_9" data-name="Rectangle 9" width="83.283" height="63.675" fill="none"/>
    </clipPath>
  </defs>
  <g id="Group_3" data-name="Group 3" clip-path="url(#clip-path)">
    <path id="Path_3" data-name="Path 3" d="M172.385,61.5l-9.6,11.788,5.414,7.375q.818,1.114,1.633,2.23c2.669,3.638,1.87,7.189-2.318,9.316-4.017,2.04-8.185,3.79-12.307,5.62a3.636,3.636,0,0,1-4.574-1.27,3.585,3.585,0,0,1,.495-4.518,3.815,3.815,0,0,1,1.115-.723c3.349-1.483,6.709-2.944,10.064-4.414.18-.079.349-.181.573-.3-1.924-2.334-3.833-4.629-5.717-6.943-1.179-1.448-2.375-2.888-3.464-4.4a6.377,6.377,0,0,1-1.426-5.376,9,9,0,0,1,1.147-2.558c2.352-3.723,4.761-7.412,7.147-11.114a4.185,4.185,0,0,0,.2-.446c-1.511,0-2.924-.011-4.336.013a1.315,1.315,0,0,0-.593.281q-3.931,2.529-7.853,5.07c-1.6,1.037-3,1.04-4.1-.024a2.723,2.723,0,0,1,.3-4.323c3.1-2.176,6.212-4.34,9.353-6.459a4.047,4.047,0,0,1,1.865-.675c3.61-.275,7.224-.556,10.841-.665a12.168,12.168,0,0,1,7.774,2.879c2.613,1.989,4.511,4.632,6.457,7.219a.856.856,0,0,0,1.273.322q4.275-1.975,8.6-3.834a2.93,2.93,0,0,1,4.265,2.219,3.288,3.288,0,0,1-1.554,3.453c-3.376,1.825-6.758,3.642-10.184,5.37a4.166,4.166,0,0,1-5.05-.65c-1.723-1.544-3.579-2.943-5.447-4.462" transform="translate(-111.403 -38.212)" fill="#efb49a"/>
    <path id="Path_4" data-name="Path 4" d="M108.318,167.826l5.358,6.911a15.271,15.271,0,0,0-1.241,1.026q-8.738,8.762-17.46,17.54a3.689,3.689,0,0,1-5.235.4,3.562,3.562,0,0,1-.183-5.131c3.185-3.265,6.45-6.458,9.52-9.827,2.766-3.037,5.314-6.27,7.961-9.416.448-.532.9-1.058,1.281-1.5" transform="translate(-69.006 -130.935)" fill="#efb49a"/>
    <path id="Path_5" data-name="Path 5" d="M267.02,0c2.836.184,4.706,1.221,5.729,3.439a5.147,5.147,0,0,1-1.064,5.807,6.038,6.038,0,0,1-5.949,2.369,5.557,5.557,0,0,1-4.265-4.824A5.812,5.812,0,0,1,264.71.7a14.274,14.274,0,0,1,2.31-.7" transform="translate(-203.715)" fill="#efb49a"/>
    <rect id="Rectangle_6" data-name="Rectangle 6" width="13.795" height="4.446" transform="translate(18.925 6.453)" fill="#d0891e"/>
    <rect id="Rectangle_7" data-name="Rectangle 7" width="25.523" height="4.446" transform="translate(0 19.327)" fill="#d0891e"/>
    <rect id="Rectangle_8" data-name="Rectangle 8" width="23.191" height="4.446" transform="translate(8.13 33.726)" fill="#d0891e"/>
    <path id="Path_6" data-name="Path 6" d="M184.8,226.572q-3.763,1.645-7.521,3.3a3.817,3.817,0,0,0-1.115.723,3.585,3.585,0,0,0-.5,4.518,3.636,3.636,0,0,0,4.574,1.27c2.558-1.136,5.133-2.241,7.679-3.4Z" transform="translate(-136.438 -176.768)"/>
    <path id="Path_7" data-name="Path 7" d="M206.349,51.861a12.168,12.168,0,0,0-7.774-2.879c-2.662.08-5.321.253-7.979.449l-.212,6.333c.883,0,1.778,0,2.713,0a4.231,4.231,0,0,1-.2.446c-2.386,3.7-4.794,7.391-7.147,11.114a9,9,0,0,0-1.147,2.558,6.377,6.377,0,0,0,1.426,5.375c1.089,1.514,2.285,2.954,3.464,4.4q1.008,1.238,2.025,2.471l6.289-5.178-2.692-3.667,9.6-11.788c1.045.85,2.085,1.662,3.1,2.483l4.6-5.427a32.524,32.524,0,0,0-6.062-6.693" transform="translate(-143.73 -38.212)"/>
    <path id="Path_8" data-name="Path 8" d="M166.33,167.826c-.377.44-.833.965-1.281,1.5q-1.032,1.227-2.049,2.466l5.482,5.946,1.965-1.973a15.312,15.312,0,0,1,1.241-1.026l-5.358-6.911" transform="translate(-127.019 -130.935)"/>
    <path id="Path_9" data-name="Path 9" d="M96.275,231.041c-2.216,2.3-4.486,4.557-6.718,6.845a3.562,3.562,0,0,0,.183,5.131,3.689,3.689,0,0,0,5.235-.4q2.867-2.877,5.73-5.757Z" transform="translate(-69.006 -180.255)"/>
  </g>
</svg>
